<svg width="55" height="55" viewBox="0 0 55 55" fill="none" xmlns="http://www.w3.org/2000/svg">
<g id="hugeicons:muslim">
<g id="Group">
<path id="Vector" d="M35.5216 20.7578L36.4864 15.8193C37.6207 10.0053 33.2826 4.58325 27.5007 4.58325C21.7189 4.58325 17.3807 10.0053 18.5151 15.8193L19.4776 20.7578C20.2453 24.6766 23.6049 27.4999 27.5007 27.4999C31.4011 27.4999 34.7584 24.6789 35.5216 20.7578Z" stroke="white" stroke-width="3.4375" stroke-linecap="round" stroke-linejoin="round"/>
<path id="Vector_2" d="M24.6348 26.3542C24.6348 25.8984 24.4538 25.4612 24.1314 25.1389C23.8091 24.8166 23.3719 24.6355 22.9161 24.6355C22.4603 24.6355 22.0231 24.8166 21.7008 25.1389C21.3784 25.4612 21.1973 25.8984 21.1973 26.3542H24.6348ZM33.8015 26.3542C33.8015 25.8984 33.6204 25.4612 33.2981 25.1389C32.9758 24.8166 32.5386 24.6355 32.0828 24.6355C31.6269 24.6355 31.1898 24.8166 30.8674 25.1389C30.5451 25.4612 30.364 25.8984 30.364 26.3542H33.8015ZM21.1973 26.3542V29.2922H24.6348V26.3542H21.1973ZM30.364 26.3542V29.2922H33.8015V26.3542H30.364ZM27.6392 34.9434L27.4994 34.948V38.3855L27.7744 38.3809L27.6392 34.9434ZM27.2267 38.3809L27.4994 38.3855V34.948L27.3596 34.9434L27.2267 38.3809ZM30.364 29.2922C30.364 30.4724 30.3503 31.0453 30.1944 31.5701C30.0592 32.0284 29.7705 32.5738 28.9226 33.4538L31.4021 35.8372C32.4746 34.7211 33.1438 33.7105 33.4898 32.5486C33.8153 31.4555 33.8015 30.3486 33.8015 29.2922H30.364ZM27.7744 38.3809C27.8615 38.3763 28.1732 38.3717 28.5353 38.2434C28.8464 38.1318 29.1369 37.9692 29.3946 37.7622C29.8438 37.4184 30.4534 36.8226 31.4021 35.8372L28.9226 33.4538C27.9509 34.4667 27.5109 34.8747 27.3023 35.0351C27.2107 35.1038 27.2588 35.0488 27.4055 34.9984C27.5751 34.9411 27.7309 34.9388 27.6392 34.9434L27.7744 38.3809ZM21.1973 29.2922C21.1973 30.3463 21.1836 31.4555 21.509 32.5463C21.8528 33.7105 22.5242 34.7234 23.599 35.8372L26.074 33.4538C25.2261 32.5738 24.9396 32.0261 24.8044 31.5701C24.6486 31.0453 24.6348 30.4724 24.6348 29.2922H21.1973ZM27.3596 34.9434C27.268 34.9388 27.4238 34.9411 27.5934 34.9984C27.7401 35.0488 27.7882 35.1038 27.6965 35.0351C27.488 34.8747 27.0457 34.4667 26.074 33.4538L23.5967 35.8372C24.5455 36.8226 25.1551 37.4184 25.6042 37.7622C25.8426 37.9455 26.1221 38.1288 26.4636 38.2434C26.828 38.3717 27.1373 38.3763 27.2267 38.3809L27.3596 34.9434Z" fill="white"/>
<path id="Vector_3" d="M22.9167 32.0833C15.4825 34.2077 11.7677 35.2687 9.50125 38.005C9.28194 38.2705 9.07472 38.5458 8.88021 38.83C7.14312 41.36 6.90708 44.5912 6.875 50.4167M32.0833 32.0833C39.5175 34.2077 43.2323 35.2687 45.4988 38.005C45.7188 38.2708 45.9258 38.5458 46.1198 38.83C47.8592 41.3623 48.0929 44.5935 48.125 50.4167M27.5 36.6667V45.8333M18.3333 13.75H36.6667" stroke="white" stroke-width="3.4375" stroke-linecap="round" stroke-linejoin="round"/>
</g>
</g>
</svg>
