<svg width="839" height="456" viewBox="0 0 839 456" fill="none" xmlns="http://www.w3.org/2000/svg">
<line x1="278.985" y1="54.5001" x2="376.985" y2="53.5001" stroke="white" stroke-width="3"/>
<line x1="509.997" y1="53" x2="608.002" y2="53" stroke="white" stroke-width="3"/>
<path d="M240.003 64.5336V148.306C240.003 157.22 238.025 165.279 234.07 172.481C230.173 179.625 224.24 185.292 216.27 189.484C208.359 193.675 198.382 195.771 186.339 195.771C169.218 195.771 156.171 191.402 147.198 182.665C138.224 173.928 133.738 162.357 133.738 147.952V64.5336H161.101V143.79C161.101 154.475 163.285 161.973 167.654 166.282C172.023 170.592 178.487 172.747 187.047 172.747C193.069 172.747 197.94 171.714 201.659 169.648C205.437 167.581 208.212 164.393 209.983 160.084C211.754 155.774 212.64 150.284 212.64 143.613V64.5336H240.003ZM385.852 93.1366C397.069 93.1366 405.54 96.0294 411.267 101.815C417.053 107.541 419.945 116.751 419.945 129.444V194H392.848V136.174C392.848 129.09 391.637 123.747 389.217 120.146C386.796 116.544 383.048 114.744 377.971 114.744C370.827 114.744 365.75 117.312 362.739 122.448C359.728 127.525 358.223 134.816 358.223 144.321V194H331.214V136.174C331.214 131.451 330.683 127.496 329.62 124.308C328.557 121.12 326.934 118.729 324.749 117.135C322.565 115.541 319.761 114.744 316.337 114.744C311.319 114.744 307.363 116.013 304.47 118.552C301.637 121.031 299.6 124.721 298.36 129.621C297.179 134.462 296.589 140.395 296.589 147.42V194H269.58V94.9963H290.213L293.844 107.66H295.349C297.357 104.235 299.866 101.461 302.876 99.3354C305.946 97.2101 309.311 95.6457 312.972 94.642C316.632 93.6384 320.351 93.1366 324.129 93.1366C331.391 93.1366 337.531 94.3173 342.549 96.6788C347.626 99.0402 351.522 102.7 354.238 107.66H356.629C359.581 102.582 363.743 98.8926 369.115 96.5902C374.546 94.2878 380.125 93.1366 385.852 93.1366ZM503.009 93.1366C504.367 93.1366 505.932 93.2252 507.703 93.4023C509.533 93.5204 511.009 93.6975 512.13 93.9336L510.094 119.26C509.208 118.965 507.939 118.758 506.286 118.64C504.692 118.463 503.304 118.375 502.124 118.375C498.641 118.375 495.246 118.817 491.94 119.703C488.693 120.588 485.771 122.035 483.173 124.042C480.575 125.99 478.509 128.588 476.974 131.835C475.498 135.023 474.76 138.949 474.76 143.613V194H447.751V94.9963H468.207L472.192 111.644H473.521C475.469 108.279 477.889 105.21 480.782 102.435C483.734 99.6011 487.069 97.3577 490.789 95.7047C494.567 93.9926 498.641 93.1366 503.009 93.1366ZM570.665 92.9595C583.948 92.9595 594.132 95.8523 601.216 101.638C608.3 107.423 611.843 116.22 611.843 128.027V194H592.98L587.756 180.54H587.047C584.214 184.082 581.321 186.975 578.369 189.218C575.417 191.461 572.023 193.114 568.185 194.177C564.348 195.24 559.684 195.771 554.194 195.771C548.349 195.771 543.095 194.649 538.431 192.406C533.826 190.163 530.195 186.739 527.539 182.134C524.882 177.47 523.554 171.566 523.554 164.423C523.554 153.914 527.244 146.181 534.623 141.222C542.003 136.204 553.072 133.429 567.831 132.898L585.011 132.366V128.027C585.011 122.832 583.653 119.024 580.937 116.604C578.221 114.183 574.443 112.973 569.602 112.973C564.82 112.973 560.127 113.652 555.522 115.01C550.917 116.367 546.312 118.079 541.707 120.146L532.763 101.903C538.018 99.1288 543.892 96.9445 550.386 95.3505C556.939 93.7565 563.698 92.9595 570.665 92.9595ZM585.011 148.129L574.561 148.483C565.824 148.719 559.743 150.284 556.319 153.176C552.954 156.069 551.271 159.877 551.271 164.6C551.271 168.732 552.482 171.684 554.902 173.455C557.323 175.167 560.481 176.023 564.377 176.023C570.163 176.023 575.033 174.311 578.989 170.887C583.003 167.463 585.011 162.593 585.011 156.276V148.129ZM666.746 56.2095V84.2812C666.746 89.1812 666.569 93.8451 666.215 98.2728C665.92 102.7 665.684 105.829 665.506 107.66H666.923C669.049 104.235 671.558 101.461 674.45 99.3354C677.402 97.2101 680.649 95.6457 684.191 94.642C687.734 93.6384 691.541 93.1366 695.615 93.1366C702.758 93.1366 708.987 94.4059 714.3 96.9445C719.613 99.424 723.746 103.35 726.697 108.722C729.649 114.035 731.125 120.943 731.125 129.444V194H704.116V136.174C704.116 129.09 702.817 123.747 700.22 120.146C697.622 116.544 693.608 114.744 688.176 114.744C682.745 114.744 678.465 116.013 675.336 118.552C672.207 121.031 669.993 124.721 668.694 129.621C667.396 134.462 666.746 140.395 666.746 147.42V194H639.737V56.2095H666.746Z" fill="white"/>
<path d="M57.7556 188.2C74.4628 188.2 86.6538 191.801 94.3285 199.004C102.003 206.147 105.841 216.006 105.841 228.581C105.841 234.248 104.985 239.68 103.272 244.875C101.56 250.011 98.7562 254.586 94.8598 258.601C91.0225 262.615 85.8863 265.803 79.4514 268.165C73.0164 270.467 65.076 271.618 55.6303 271.618H43.8525V317.667H16.4007V188.2H57.7556ZM56.3387 210.693H43.8525V249.126H52.8851C58.0212 249.126 62.4785 248.447 66.2568 247.089C70.0351 245.731 72.9574 243.606 75.0237 240.713C77.0899 237.82 78.1231 234.101 78.1231 229.555C78.1231 223.179 76.352 218.456 72.8098 215.386C69.2676 212.257 63.7773 210.693 56.3387 210.693ZM168.714 216.626C181.997 216.626 192.181 219.519 199.265 225.304C206.35 231.09 209.892 239.886 209.892 251.694V317.667H191.03L185.805 304.206H185.097C182.263 307.749 179.37 310.641 176.418 312.885C173.467 315.128 170.072 316.781 166.235 317.844C162.397 318.906 157.733 319.438 152.243 319.438C146.398 319.438 141.144 318.316 136.48 316.073C131.876 313.829 128.245 310.405 125.588 305.8C122.932 301.136 121.603 295.233 121.603 288.089C121.603 277.581 125.293 269.847 132.673 264.888C140.052 259.87 151.121 257.095 165.88 256.564L183.06 256.033V251.694C183.06 246.498 181.702 242.691 178.986 240.27C176.271 237.85 172.492 236.639 167.651 236.639C162.87 236.639 158.176 237.318 153.571 238.676C148.967 240.034 144.362 241.746 139.757 243.812L130.813 225.57C136.067 222.795 141.941 220.611 148.435 219.017C154.988 217.423 161.748 216.626 168.714 216.626ZM183.06 271.795L172.611 272.15C163.873 272.386 157.792 273.95 154.368 276.843C151.003 279.736 149.321 283.544 149.321 288.267C149.321 292.399 150.531 295.351 152.951 297.122C155.372 298.834 158.53 299.69 162.427 299.69C168.212 299.69 173.083 297.978 177.038 294.554C181.053 291.13 183.06 286.259 183.06 279.942V271.795ZM277.99 319.438C268.19 319.438 259.837 317.667 252.929 314.124C246.022 310.523 240.768 304.974 237.167 297.476C233.565 289.979 231.765 280.385 231.765 268.696C231.765 256.594 233.802 246.735 237.875 239.119C242.008 231.444 247.705 225.806 254.966 222.205C262.287 218.604 270.758 216.803 280.381 216.803C287.229 216.803 293.133 217.482 298.092 218.84C303.11 220.139 307.479 221.703 311.198 223.533L303.228 244.432C298.978 242.72 295.022 241.333 291.362 240.27C287.702 239.148 284.041 238.588 280.381 238.588C275.658 238.588 271.732 239.709 268.603 241.953C265.475 244.137 263.143 247.443 261.608 251.871C260.073 256.298 259.305 261.848 259.305 268.519C259.305 275.072 260.132 280.503 261.785 284.813C263.438 289.123 265.829 292.34 268.958 294.465C272.087 296.532 275.894 297.565 280.381 297.565C285.99 297.565 290.978 296.827 295.347 295.351C299.716 293.816 303.966 291.691 308.099 288.975V312.088C303.966 314.685 299.627 316.545 295.081 317.667C290.594 318.847 284.897 319.438 277.99 319.438ZM358.132 179.876V241.51C358.132 245.229 357.984 248.948 357.689 252.668C357.394 256.387 357.069 260.106 356.715 263.826H357.069C358.899 261.228 360.759 258.66 362.648 256.121C364.596 253.583 366.663 251.133 368.847 248.771L396.564 218.663H427.027L387.709 261.612L429.418 317.667H398.247L369.732 277.552L358.132 286.85V317.667H331.123V179.876H358.132ZM484.145 216.626C497.428 216.626 507.612 219.519 514.696 225.304C521.78 231.09 525.322 239.886 525.322 251.694V317.667H506.46L501.236 304.206H500.527C497.693 307.749 494.801 310.641 491.849 312.885C488.897 315.128 485.502 316.781 481.665 317.844C477.828 318.906 473.164 319.438 467.674 319.438C461.829 319.438 456.575 318.316 451.911 316.073C447.306 313.829 443.675 310.405 441.019 305.8C438.362 301.136 437.034 295.233 437.034 288.089C437.034 277.581 440.724 269.847 448.103 264.888C455.483 259.87 466.552 257.095 481.311 256.564L498.49 256.033V251.694C498.49 246.498 497.133 242.691 494.417 240.27C491.701 237.85 487.923 236.639 483.082 236.639C478.3 236.639 473.607 237.318 469.002 238.676C464.397 240.034 459.792 241.746 455.187 243.812L446.243 225.57C451.498 222.795 457.372 220.611 463.866 219.017C470.419 217.423 477.178 216.626 484.145 216.626ZM498.49 271.795L488.041 272.15C479.304 272.386 473.223 273.95 469.799 276.843C466.434 279.736 464.751 283.544 464.751 288.267C464.751 292.399 465.962 295.351 468.382 297.122C470.802 298.834 473.961 299.69 477.857 299.69C483.643 299.69 488.513 297.978 492.469 294.554C496.483 291.13 498.49 286.259 498.49 279.942V271.795ZM582.174 361.235C568.36 361.235 557.792 358.815 550.472 353.974C543.21 349.192 539.58 342.462 539.58 333.784C539.58 327.821 541.439 322.832 545.159 318.818C548.878 314.803 554.339 311.94 561.541 310.228C558.766 309.047 556.346 307.129 554.28 304.472C552.213 301.756 551.18 298.893 551.18 295.882C551.18 292.104 552.272 288.975 554.457 286.496C556.641 283.957 559.8 281.477 563.932 279.057C558.737 276.814 554.604 273.212 551.535 268.253C548.524 263.294 547.018 257.45 547.018 250.72C547.018 243.517 548.583 237.407 551.712 232.389C554.9 227.312 559.504 223.445 565.526 220.788C571.607 218.132 578.986 216.803 587.665 216.803C589.495 216.803 591.62 216.921 594.041 217.157C596.461 217.394 598.675 217.659 600.682 217.954C602.748 218.25 604.136 218.486 604.844 218.663H639.38V232.389L623.883 236.374C625.3 238.558 626.363 240.89 627.071 243.37C627.78 245.849 628.134 248.476 628.134 251.251C628.134 261.877 624.415 270.172 616.976 276.135C609.597 282.038 599.324 284.99 586.159 284.99C583.03 284.813 580.079 284.577 577.304 284.282C575.946 285.344 574.913 286.466 574.204 287.647C573.496 288.827 573.142 290.067 573.142 291.366C573.142 292.665 573.673 293.757 574.736 294.643C575.857 295.469 577.51 296.118 579.695 296.591C581.938 297.004 584.713 297.211 588.019 297.211H604.844C615.707 297.211 623.972 299.543 629.639 304.206C635.366 308.87 638.229 315.718 638.229 324.751C638.229 336.322 633.388 345.296 623.706 351.671C614.083 358.047 600.239 361.235 582.174 361.235ZM583.326 343.613C589.76 343.613 595.28 342.993 599.885 341.753C604.549 340.573 608.121 338.861 610.6 336.617C613.08 334.433 614.32 331.806 614.32 328.736C614.32 326.256 613.582 324.279 612.106 322.803C610.689 321.386 608.504 320.382 605.553 319.792C602.66 319.202 598.941 318.906 594.395 318.906H580.403C577.097 318.906 574.116 319.438 571.459 320.5C568.862 321.563 566.795 323.039 565.26 324.928C563.725 326.876 562.958 329.12 562.958 331.658C562.958 335.377 564.729 338.3 568.271 340.425C571.872 342.55 576.891 343.613 583.326 343.613ZM587.665 268.519C592.742 268.519 596.461 266.955 598.823 263.826C601.184 260.697 602.365 256.446 602.365 251.074C602.365 245.111 601.125 240.654 598.645 237.702C596.225 234.691 592.565 233.186 587.665 233.186C582.706 233.186 578.986 234.691 576.507 237.702C574.027 240.654 572.788 245.111 572.788 251.074C572.788 256.446 573.998 260.697 576.418 263.826C578.898 266.955 582.647 268.519 587.665 268.519ZM696.586 216.803C705.737 216.803 713.618 218.574 720.23 222.117C726.843 225.6 731.949 230.677 735.55 237.348C739.152 244.019 740.952 252.166 740.952 261.789V274.895H677.105C677.4 282.511 679.673 288.503 683.923 292.871C688.233 297.181 694.196 299.336 701.811 299.336C708.128 299.336 713.914 298.686 719.168 297.388C724.422 296.089 729.824 294.141 735.373 291.543V312.442C730.473 314.862 725.337 316.633 719.965 317.755C714.652 318.877 708.187 319.438 700.571 319.438C690.653 319.438 681.857 317.608 674.182 313.947C666.567 310.287 660.574 304.708 656.206 297.211C651.896 289.713 649.741 280.267 649.741 268.873C649.741 257.302 651.689 247.679 655.586 240.004C659.541 232.271 665.032 226.485 672.057 222.648C679.082 218.751 687.259 216.803 696.586 216.803ZM696.764 236.02C691.509 236.02 687.141 237.702 683.658 241.067C680.233 244.432 678.256 249.716 677.724 256.918H715.626C715.567 252.904 714.829 249.332 713.412 246.203C712.054 243.074 709.988 240.595 707.213 238.765C704.497 236.935 701.014 236.02 696.764 236.02ZM831.986 288.267C831.986 294.997 830.392 300.694 827.204 305.358C824.075 309.962 819.382 313.475 813.124 315.896C806.866 318.257 799.073 319.438 789.746 319.438C782.838 319.438 776.905 318.995 771.946 318.109C767.046 317.224 762.087 315.748 757.069 313.682V291.366C762.441 293.786 768.197 295.794 774.337 297.388C780.536 298.923 785.967 299.69 790.631 299.69C795.885 299.69 799.634 298.923 801.878 297.388C804.18 295.794 805.331 293.727 805.331 291.189C805.331 289.536 804.859 288.06 803.914 286.761C803.029 285.403 801.081 283.898 798.07 282.245C795.059 280.533 790.336 278.319 783.901 275.603C777.702 273.006 772.596 270.379 768.581 267.722C764.626 265.065 761.674 261.936 759.726 258.335C757.837 254.675 756.892 250.041 756.892 244.432C756.892 235.282 760.434 228.404 767.519 223.799C774.662 219.135 784.196 216.803 796.122 216.803C802.261 216.803 808.106 217.423 813.655 218.663C819.264 219.903 825.02 221.88 830.923 224.596L822.776 244.078C817.876 241.953 813.242 240.211 808.873 238.853C804.564 237.495 800.166 236.817 795.679 236.817C791.723 236.817 788.742 237.348 786.735 238.411C784.728 239.473 783.724 241.097 783.724 243.281C783.724 244.875 784.226 246.292 785.229 247.532C786.292 248.771 788.299 250.159 791.251 251.694C794.262 253.17 798.66 255.088 804.446 257.45C810.054 259.752 814.925 262.173 819.057 264.711C823.19 267.191 826.378 270.29 828.621 274.009C830.864 277.67 831.986 282.422 831.986 288.267Z" fill="white"/>
<g filter="url(#filter0_d_353_896)">
<path d="M108.988 386.764V389.839H113.947V392.698H108.988V396.033H114.597V399H105.285V383.797H114.597V386.764H108.988ZM124.148 399L121.831 395.643L119.882 399H115.875L119.86 392.828L115.767 386.915H119.925L122.243 390.25L124.192 386.915H128.198L124.148 393.001L128.307 399H124.148ZM133.437 388.626C133.798 388.063 134.296 387.608 134.931 387.262C135.567 386.915 136.31 386.742 137.162 386.742C138.158 386.742 139.061 386.995 139.869 387.5C140.678 388.005 141.313 388.727 141.775 389.666C142.252 390.604 142.49 391.694 142.49 392.936C142.49 394.178 142.252 395.275 141.775 396.228C141.313 397.166 140.678 397.895 139.869 398.415C139.061 398.921 138.158 399.173 137.162 399.173C136.325 399.173 135.581 399 134.931 398.653C134.296 398.307 133.798 397.859 133.437 397.311V404.761H129.734V386.915H133.437V388.626ZM138.721 392.936C138.721 392.012 138.462 391.29 137.942 390.77C137.436 390.236 136.808 389.969 136.058 389.969C135.321 389.969 134.693 390.236 134.173 390.77C133.668 391.304 133.415 392.034 133.415 392.958C133.415 393.882 133.668 394.611 134.173 395.145C134.693 395.679 135.321 395.946 136.058 395.946C136.794 395.946 137.422 395.679 137.942 395.145C138.462 394.596 138.721 393.86 138.721 392.936ZM148.136 382.974V399H144.433V382.974H148.136ZM156.321 399.173C155.137 399.173 154.068 398.921 153.116 398.415C152.177 397.91 151.434 397.188 150.885 396.25C150.351 395.311 150.084 394.214 150.084 392.958C150.084 391.716 150.358 390.626 150.907 389.687C151.455 388.734 152.206 388.005 153.159 387.5C154.112 386.995 155.18 386.742 156.364 386.742C157.548 386.742 158.617 386.995 159.569 387.5C160.522 388.005 161.273 388.734 161.822 389.687C162.37 390.626 162.645 391.716 162.645 392.958C162.645 394.199 162.363 395.297 161.8 396.25C161.251 397.188 160.493 397.91 159.526 398.415C158.573 398.921 157.505 399.173 156.321 399.173ZM156.321 395.968C157.028 395.968 157.628 395.708 158.118 395.188C158.624 394.669 158.876 393.925 158.876 392.958C158.876 391.99 158.631 391.247 158.14 390.727C157.664 390.207 157.072 389.947 156.364 389.947C155.642 389.947 155.043 390.207 154.567 390.727C154.09 391.232 153.852 391.976 153.852 392.958C153.852 393.925 154.083 394.669 154.545 395.188C155.021 395.708 155.613 395.968 156.321 395.968ZM168.313 388.929C168.746 388.265 169.287 387.745 169.937 387.37C170.587 386.98 171.309 386.785 172.103 386.785V390.705H171.085C170.161 390.705 169.468 390.907 169.006 391.312C168.544 391.701 168.313 392.395 168.313 393.391V399H164.61V386.915H168.313V388.929ZM185.265 392.763C185.265 393.109 185.243 393.47 185.2 393.846H176.818C176.876 394.596 177.114 395.174 177.533 395.578C177.966 395.968 178.493 396.163 179.114 396.163C180.038 396.163 180.681 395.773 181.042 394.993H184.983C184.781 395.787 184.413 396.502 183.879 397.137C183.359 397.773 182.702 398.271 181.908 398.632C181.114 398.993 180.226 399.173 179.244 399.173C178.06 399.173 177.006 398.921 176.082 398.415C175.158 397.91 174.436 397.188 173.916 396.25C173.397 395.311 173.137 394.214 173.137 392.958C173.137 391.701 173.389 390.604 173.895 389.666C174.415 388.727 175.136 388.005 176.06 387.5C176.985 386.995 178.046 386.742 179.244 386.742C180.414 386.742 181.453 386.987 182.363 387.478C183.272 387.969 183.98 388.669 184.485 389.579C185.005 390.489 185.265 391.55 185.265 392.763ZM181.475 391.788C181.475 391.153 181.258 390.647 180.825 390.272C180.392 389.897 179.851 389.709 179.201 389.709C178.58 389.709 178.053 389.889 177.62 390.25C177.201 390.611 176.941 391.124 176.84 391.788H181.475ZM197.309 399.173C196.125 399.173 195.057 398.921 194.104 398.415C193.165 397.91 192.422 397.188 191.873 396.25C191.339 395.311 191.072 394.214 191.072 392.958C191.072 391.716 191.346 390.626 191.895 389.687C192.443 388.734 193.194 388.005 194.147 387.5C195.1 386.995 196.168 386.742 197.352 386.742C198.536 386.742 199.605 386.995 200.558 387.5C201.511 388.005 202.261 388.734 202.81 389.687C203.359 390.626 203.633 391.716 203.633 392.958C203.633 394.199 203.351 395.297 202.788 396.25C202.24 397.188 201.482 397.91 200.514 398.415C199.561 398.921 198.493 399.173 197.309 399.173ZM197.309 395.968C198.016 395.968 198.616 395.708 199.107 395.188C199.612 394.669 199.865 393.925 199.865 392.958C199.865 391.99 199.619 391.247 199.128 390.727C198.652 390.207 198.06 389.947 197.352 389.947C196.63 389.947 196.031 390.207 195.555 390.727C195.078 391.232 194.84 391.976 194.84 392.958C194.84 393.925 195.071 394.669 195.533 395.188C196.01 395.708 196.602 395.968 197.309 395.968ZM217.531 386.915V399H213.827V397.354C213.452 397.888 212.939 398.321 212.29 398.653C211.654 398.971 210.947 399.13 210.167 399.13C209.243 399.13 208.428 398.928 207.72 398.524C207.013 398.105 206.464 397.506 206.074 396.726C205.684 395.946 205.489 395.029 205.489 393.976V386.915H209.171V393.477C209.171 394.286 209.38 394.914 209.799 395.362C210.218 395.809 210.781 396.033 211.488 396.033C212.21 396.033 212.781 395.809 213.199 395.362C213.618 394.914 213.827 394.286 213.827 393.477V386.915H217.531ZM223.894 388.929C224.328 388.265 224.869 387.745 225.519 387.37C226.168 386.98 226.89 386.785 227.684 386.785V390.705H226.666C225.742 390.705 225.049 390.907 224.587 391.312C224.125 391.701 223.894 392.395 223.894 393.391V399H220.191V386.915H223.894V388.929ZM245.436 392.763C245.436 393.109 245.414 393.47 245.371 393.846H236.989C237.047 394.596 237.285 395.174 237.704 395.578C238.137 395.968 238.664 396.163 239.285 396.163C240.209 396.163 240.852 395.773 241.213 394.993H245.154C244.952 395.787 244.584 396.502 244.05 397.137C243.53 397.773 242.873 398.271 242.079 398.632C241.285 398.993 240.397 399.173 239.415 399.173C238.231 399.173 237.177 398.921 236.253 398.415C235.329 397.91 234.607 397.188 234.087 396.25C233.568 395.311 233.308 394.214 233.308 392.958C233.308 391.701 233.56 390.604 234.066 389.666C234.585 388.727 235.307 388.005 236.231 387.5C237.155 386.995 238.217 386.742 239.415 386.742C240.585 386.742 241.624 386.987 242.534 387.478C243.443 387.969 244.151 388.669 244.656 389.579C245.176 390.489 245.436 391.55 245.436 392.763ZM241.646 391.788C241.646 391.153 241.429 390.647 240.996 390.272C240.563 389.897 240.021 389.709 239.372 389.709C238.751 389.709 238.224 389.889 237.791 390.25C237.372 390.611 237.112 391.124 237.011 391.788H241.646ZM254.536 399L252.219 395.643L250.27 399H246.263L250.248 392.828L246.155 386.915H250.313L252.631 390.25L254.58 386.915H258.586L254.536 393.001L258.695 399H254.536ZM259.385 392.958C259.385 391.701 259.638 390.604 260.143 389.666C260.663 388.727 261.378 388.005 262.287 387.5C263.211 386.995 264.265 386.742 265.449 386.742C266.965 386.742 268.229 387.139 269.239 387.933C270.264 388.727 270.936 389.846 271.253 391.29H267.312C266.98 390.366 266.337 389.904 265.384 389.904C264.706 389.904 264.164 390.171 263.76 390.705C263.356 391.225 263.154 391.976 263.154 392.958C263.154 393.939 263.356 394.697 263.76 395.232C264.164 395.751 264.706 396.011 265.384 396.011C266.337 396.011 266.98 395.549 267.312 394.625H271.253C270.936 396.04 270.264 397.152 269.239 397.96C268.214 398.769 266.951 399.173 265.449 399.173C264.265 399.173 263.211 398.921 262.287 398.415C261.378 397.91 260.663 397.188 260.143 396.25C259.638 395.311 259.385 394.214 259.385 392.958ZM276.938 382.974V399H273.234V382.974H276.938ZM291.555 386.915V399H287.851V397.354C287.476 397.888 286.963 398.321 286.314 398.653C285.678 398.971 284.971 399.13 284.191 399.13C283.267 399.13 282.452 398.928 281.744 398.524C281.037 398.105 280.488 397.506 280.098 396.726C279.708 395.946 279.513 395.029 279.513 393.976V386.915H283.195V393.477C283.195 394.286 283.404 394.914 283.823 395.362C284.242 395.809 284.805 396.033 285.512 396.033C286.234 396.033 286.805 395.809 287.223 395.362C287.642 394.914 287.851 394.286 287.851 393.477V386.915H291.555ZM299.131 399.173C298.077 399.173 297.139 398.993 296.316 398.632C295.493 398.271 294.843 397.78 294.367 397.159C293.89 396.524 293.623 395.816 293.565 395.037H297.225C297.269 395.455 297.464 395.795 297.81 396.055C298.157 396.314 298.583 396.444 299.088 396.444C299.55 396.444 299.904 396.358 300.149 396.185C300.409 395.997 300.539 395.759 300.539 395.47C300.539 395.123 300.358 394.871 299.997 394.712C299.637 394.539 299.052 394.351 298.243 394.149C297.377 393.947 296.655 393.737 296.077 393.521C295.5 393.29 295.002 392.936 294.583 392.459C294.164 391.969 293.955 391.312 293.955 390.489C293.955 389.796 294.143 389.168 294.518 388.604C294.908 388.027 295.471 387.572 296.207 387.24C296.958 386.908 297.846 386.742 298.871 386.742C300.387 386.742 301.578 387.117 302.445 387.868C303.325 388.619 303.831 389.615 303.961 390.857H300.539C300.481 390.438 300.293 390.106 299.976 389.861C299.673 389.615 299.268 389.492 298.763 389.492C298.33 389.492 297.998 389.579 297.767 389.752C297.536 389.911 297.42 390.135 297.42 390.424C297.42 390.77 297.601 391.03 297.962 391.203C298.337 391.377 298.915 391.55 299.694 391.723C300.589 391.954 301.319 392.185 301.882 392.416C302.445 392.633 302.936 392.994 303.354 393.499C303.787 393.99 304.011 394.654 304.026 395.492C304.026 396.199 303.824 396.834 303.419 397.397C303.029 397.946 302.459 398.379 301.708 398.697C300.972 399.014 300.113 399.173 299.131 399.173ZM308.154 385.659C307.504 385.659 306.97 385.471 306.551 385.096C306.147 384.706 305.945 384.23 305.945 383.667C305.945 383.089 306.147 382.613 306.551 382.237C306.97 381.847 307.504 381.652 308.154 381.652C308.789 381.652 309.309 381.847 309.713 382.237C310.132 382.613 310.341 383.089 310.341 383.667C310.341 384.23 310.132 384.706 309.713 385.096C309.309 385.471 308.789 385.659 308.154 385.659ZM309.995 386.915V399H306.291V386.915H309.995ZM318.115 395.535L320.735 386.915H324.677L320.389 399H315.819L311.531 386.915H315.494L318.115 395.535ZM337.627 392.763C337.627 393.109 337.606 393.47 337.562 393.846H329.181C329.239 394.596 329.477 395.174 329.896 395.578C330.329 395.968 330.856 396.163 331.477 396.163C332.401 396.163 333.043 395.773 333.404 394.993H337.346C337.144 395.787 336.776 396.502 336.241 397.137C335.722 397.773 335.065 398.271 334.27 398.632C333.476 398.993 332.588 399.173 331.607 399.173C330.423 399.173 329.369 398.921 328.445 398.415C327.521 397.91 326.799 397.188 326.279 396.25C325.759 395.311 325.499 394.214 325.499 392.958C325.499 391.701 325.752 390.604 326.257 389.666C326.777 388.727 327.499 388.005 328.423 387.5C329.347 386.995 330.408 386.742 331.607 386.742C332.776 386.742 333.816 386.987 334.725 387.478C335.635 387.969 336.342 388.669 336.848 389.579C337.367 390.489 337.627 391.55 337.627 392.763ZM333.837 391.788C333.837 391.153 333.621 390.647 333.188 390.272C332.754 389.897 332.213 389.709 331.563 389.709C330.942 389.709 330.415 389.889 329.982 390.25C329.564 390.611 329.304 391.124 329.203 391.788H333.837ZM347.809 383.797V392.893C347.809 393.802 348.033 394.502 348.48 394.993C348.928 395.484 349.585 395.73 350.451 395.73C351.317 395.73 351.982 395.484 352.444 394.993C352.906 394.502 353.137 393.802 353.137 392.893V383.797H356.84V392.871C356.84 394.228 356.551 395.376 355.974 396.314C355.396 397.253 354.617 397.96 353.635 398.437C352.667 398.913 351.585 399.152 350.386 399.152C349.188 399.152 348.112 398.921 347.159 398.459C346.221 397.982 345.477 397.275 344.929 396.336C344.38 395.383 344.106 394.228 344.106 392.871V383.797H347.809ZM374.861 386.785C376.362 386.785 377.553 387.24 378.434 388.15C379.329 389.059 379.777 390.323 379.777 391.94V399H376.095V392.438C376.095 391.658 375.886 391.059 375.467 390.64C375.063 390.207 374.5 389.991 373.778 389.991C373.056 389.991 372.486 390.207 372.067 390.64C371.663 391.059 371.46 391.658 371.46 392.438V399H367.779V392.438C367.779 391.658 367.569 391.059 367.151 390.64C366.746 390.207 366.183 389.991 365.461 389.991C364.74 389.991 364.169 390.207 363.75 390.64C363.346 391.059 363.144 391.658 363.144 392.438V399H359.441V386.915H363.144V388.431C363.519 387.926 364.01 387.529 364.617 387.24C365.223 386.937 365.909 386.785 366.674 386.785C367.584 386.785 368.392 386.98 369.1 387.37C369.822 387.76 370.385 388.316 370.789 389.038C371.208 388.373 371.778 387.832 372.5 387.413C373.222 386.995 374.009 386.785 374.861 386.785ZM386.07 388.929C386.504 388.265 387.045 387.745 387.695 387.37C388.344 386.98 389.066 386.785 389.86 386.785V390.705H388.843C387.918 390.705 387.225 390.907 386.763 391.312C386.301 391.701 386.07 392.395 386.07 393.391V399H382.367V386.915H386.07V388.929ZM390.894 392.936C390.894 391.694 391.125 390.604 391.587 389.666C392.064 388.727 392.706 388.005 393.515 387.5C394.323 386.995 395.226 386.742 396.222 386.742C397.074 386.742 397.817 386.915 398.453 387.262C399.102 387.608 399.6 388.063 399.947 388.626V386.915H403.65V399H399.947V397.289C399.586 397.852 399.081 398.307 398.431 398.653C397.796 399 397.052 399.173 396.2 399.173C395.218 399.173 394.323 398.921 393.515 398.415C392.706 397.895 392.064 397.166 391.587 396.228C391.125 395.275 390.894 394.178 390.894 392.936ZM399.947 392.958C399.947 392.034 399.687 391.304 399.167 390.77C398.662 390.236 398.041 389.969 397.305 389.969C396.568 389.969 395.94 390.236 395.421 390.77C394.915 391.29 394.663 392.012 394.663 392.936C394.663 393.86 394.915 394.596 395.421 395.145C395.94 395.679 396.568 395.946 397.305 395.946C398.041 395.946 398.662 395.679 399.167 395.145C399.687 394.611 399.947 393.882 399.947 392.958ZM413.758 386.785C415.144 386.785 416.256 387.247 417.093 388.171C417.931 389.081 418.349 390.337 418.349 391.94V399H414.668V392.438C414.668 391.629 414.458 391.001 414.04 390.554C413.621 390.106 413.058 389.882 412.35 389.882C411.643 389.882 411.08 390.106 410.661 390.554C410.242 391.001 410.033 391.629 410.033 392.438V399H406.33V382.974H410.033V388.54C410.408 388.005 410.921 387.579 411.571 387.262C412.22 386.944 412.95 386.785 413.758 386.785ZM429.216 388.626C429.577 388.063 430.075 387.608 430.71 387.262C431.345 386.915 432.089 386.742 432.941 386.742C433.937 386.742 434.839 386.995 435.648 387.5C436.457 388.005 437.092 388.727 437.554 389.666C438.03 390.604 438.269 391.694 438.269 392.936C438.269 394.178 438.03 395.275 437.554 396.228C437.092 397.166 436.457 397.895 435.648 398.415C434.839 398.921 433.937 399.173 432.941 399.173C432.103 399.173 431.36 399 430.71 398.653C430.075 398.307 429.577 397.859 429.216 397.311V404.761H425.512V386.915H429.216V388.626ZM434.5 392.936C434.5 392.012 434.24 391.29 433.721 390.77C433.215 390.236 432.587 389.969 431.836 389.969C431.1 389.969 430.472 390.236 429.952 390.77C429.447 391.304 429.194 392.034 429.194 392.958C429.194 393.882 429.447 394.611 429.952 395.145C430.472 395.679 431.1 395.946 431.836 395.946C432.573 395.946 433.201 395.679 433.721 395.145C434.24 394.596 434.5 393.86 434.5 392.936ZM439.475 392.936C439.475 391.694 439.706 390.604 440.168 389.666C440.645 388.727 441.287 388.005 442.096 387.5C442.904 386.995 443.807 386.742 444.803 386.742C445.655 386.742 446.398 386.915 447.034 387.262C447.683 387.608 448.181 388.063 448.528 388.626V386.915H452.231V399H448.528V397.289C448.167 397.852 447.662 398.307 447.012 398.653C446.377 399 445.633 399.173 444.781 399.173C443.799 399.173 442.904 398.921 442.096 398.415C441.287 397.895 440.645 397.166 440.168 396.228C439.706 395.275 439.475 394.178 439.475 392.936ZM448.528 392.958C448.528 392.034 448.268 391.304 447.748 390.77C447.243 390.236 446.622 389.969 445.886 389.969C445.149 389.969 444.521 390.236 444.001 390.77C443.496 391.29 443.243 392.012 443.243 392.936C443.243 393.86 443.496 394.596 444.001 395.145C444.521 395.679 445.149 395.946 445.886 395.946C446.622 395.946 447.243 395.679 447.748 395.145C448.268 394.611 448.528 393.882 448.528 392.958ZM454.174 392.958C454.174 391.701 454.427 390.604 454.932 389.666C455.452 388.727 456.167 388.005 457.076 387.5C458 386.995 459.054 386.742 460.238 386.742C461.754 386.742 463.018 387.139 464.028 387.933C465.053 388.727 465.725 389.846 466.042 391.29H462.101C461.769 390.366 461.126 389.904 460.173 389.904C459.495 389.904 458.953 390.171 458.549 390.705C458.145 391.225 457.943 391.976 457.943 392.958C457.943 393.939 458.145 394.697 458.549 395.232C458.953 395.751 459.495 396.011 460.173 396.011C461.126 396.011 461.769 395.549 462.101 394.625H466.042C465.725 396.04 465.053 397.152 464.028 397.96C463.003 398.769 461.74 399.173 460.238 399.173C459.054 399.173 458 398.921 457.076 398.415C456.167 397.91 455.452 397.188 454.932 396.25C454.427 395.311 454.174 394.214 454.174 392.958ZM475.408 399L471.727 393.932V399H468.023V382.974H471.727V391.831L475.387 386.915H479.957L474.932 392.979L480 399H475.408ZM480.675 392.936C480.675 391.694 480.906 390.604 481.368 389.666C481.844 388.727 482.487 388.005 483.295 387.5C484.104 386.995 485.006 386.742 486.002 386.742C486.854 386.742 487.598 386.915 488.233 387.262C488.883 387.608 489.381 388.063 489.727 388.626V386.915H493.431V399H489.727V397.289C489.367 397.852 488.861 398.307 488.211 398.653C487.576 399 486.833 399.173 485.981 399.173C484.999 399.173 484.104 398.921 483.295 398.415C482.487 397.895 481.844 397.166 481.368 396.228C480.906 395.275 480.675 394.178 480.675 392.936ZM489.727 392.958C489.727 392.034 489.468 391.304 488.948 390.77C488.442 390.236 487.822 389.969 487.085 389.969C486.349 389.969 485.721 390.236 485.201 390.77C484.696 391.29 484.443 392.012 484.443 392.936C484.443 393.86 484.696 394.596 485.201 395.145C485.721 395.679 486.349 395.946 487.085 395.946C487.822 395.946 488.442 395.679 488.948 395.145C489.468 394.611 489.727 393.882 489.727 392.958ZM500.701 386.742C501.553 386.742 502.297 386.915 502.932 387.262C503.582 387.608 504.08 388.063 504.427 388.626V386.915H508.13V398.978C508.13 400.09 507.906 401.094 507.459 401.989C507.025 402.898 506.354 403.62 505.444 404.154C504.549 404.689 503.43 404.956 502.088 404.956C500.297 404.956 498.846 404.53 497.734 403.678C496.623 402.841 495.987 401.7 495.829 400.256H499.489C499.604 400.718 499.879 401.079 500.312 401.339C500.745 401.613 501.279 401.75 501.914 401.75C502.68 401.75 503.286 401.527 503.734 401.079C504.196 400.646 504.427 399.946 504.427 398.978V397.267C504.066 397.831 503.567 398.293 502.932 398.653C502.297 399 501.553 399.173 500.701 399.173C499.705 399.173 498.803 398.921 497.994 398.415C497.186 397.895 496.543 397.166 496.067 396.228C495.605 395.275 495.374 394.178 495.374 392.936C495.374 391.694 495.605 390.604 496.067 389.666C496.543 388.727 497.186 388.005 497.994 387.5C498.803 386.995 499.705 386.742 500.701 386.742ZM504.427 392.958C504.427 392.034 504.167 391.304 503.647 390.77C503.142 390.236 502.521 389.969 501.784 389.969C501.048 389.969 500.42 390.236 499.9 390.77C499.395 391.29 499.142 392.012 499.142 392.936C499.142 393.86 499.395 394.596 499.9 395.145C500.42 395.679 501.048 395.946 501.784 395.946C502.521 395.946 503.142 395.679 503.647 395.145C504.167 394.611 504.427 393.882 504.427 392.958ZM522.201 392.763C522.201 393.109 522.179 393.47 522.136 393.846H513.755C513.812 394.596 514.051 395.174 514.469 395.578C514.902 395.968 515.429 396.163 516.05 396.163C516.974 396.163 517.617 395.773 517.978 394.993H521.919C521.717 395.787 521.349 396.502 520.815 397.137C520.295 397.773 519.638 398.271 518.844 398.632C518.05 398.993 517.162 399.173 516.18 399.173C514.996 399.173 513.942 398.921 513.018 398.415C512.094 397.91 511.372 397.188 510.853 396.25C510.333 395.311 510.073 394.214 510.073 392.958C510.073 391.701 510.326 390.604 510.831 389.666C511.351 388.727 512.073 388.005 512.997 387.5C513.921 386.995 514.982 386.742 516.18 386.742C517.35 386.742 518.389 386.987 519.299 387.478C520.208 387.969 520.916 388.669 521.421 389.579C521.941 390.489 522.201 391.55 522.201 392.763ZM518.411 391.788C518.411 391.153 518.194 390.647 517.761 390.272C517.328 389.897 516.787 389.709 516.137 389.709C515.516 389.709 514.989 389.889 514.556 390.25C514.137 390.611 513.877 391.124 513.776 391.788H518.411ZM529.071 399.173C528.017 399.173 527.078 398.993 526.255 398.632C525.432 398.271 524.783 397.78 524.306 397.159C523.83 396.524 523.563 395.816 523.505 395.037H527.165C527.208 395.455 527.403 395.795 527.75 396.055C528.096 396.314 528.522 396.444 529.028 396.444C529.49 396.444 529.843 396.358 530.089 396.185C530.349 395.997 530.479 395.759 530.479 395.47C530.479 395.123 530.298 394.871 529.937 394.712C529.576 394.539 528.991 394.351 528.183 394.149C527.317 393.947 526.595 393.737 526.017 393.521C525.44 393.29 524.942 392.936 524.523 392.459C524.104 391.969 523.895 391.312 523.895 390.489C523.895 389.796 524.082 389.168 524.458 388.604C524.848 388.027 525.411 387.572 526.147 387.24C526.898 386.908 527.786 386.742 528.811 386.742C530.327 386.742 531.518 387.117 532.384 387.868C533.265 388.619 533.771 389.615 533.9 390.857H530.479C530.421 390.438 530.233 390.106 529.916 389.861C529.612 389.615 529.208 389.492 528.703 389.492C528.27 389.492 527.937 389.579 527.706 389.752C527.475 389.911 527.36 390.135 527.36 390.424C527.36 390.77 527.54 391.03 527.901 391.203C528.277 391.377 528.854 391.55 529.634 391.723C530.529 391.954 531.258 392.185 531.821 392.416C532.384 392.633 532.875 392.994 533.294 393.499C533.727 393.99 533.951 394.654 533.965 395.492C533.965 396.199 533.763 396.834 533.359 397.397C532.969 397.946 532.399 398.379 531.648 398.697C530.912 399.014 530.053 399.173 529.071 399.173ZM540.084 392.936C540.084 391.694 540.315 390.604 540.777 389.666C541.254 388.727 541.896 388.005 542.705 387.5C543.513 386.995 544.416 386.742 545.412 386.742C546.206 386.742 546.928 386.908 547.578 387.24C548.242 387.572 548.762 388.02 549.137 388.583V382.974H552.84V399H549.137V397.267C548.791 397.845 548.292 398.307 547.643 398.653C547.007 399 546.264 399.173 545.412 399.173C544.416 399.173 543.513 398.921 542.705 398.415C541.896 397.895 541.254 397.166 540.777 396.228C540.315 395.275 540.084 394.178 540.084 392.936ZM549.137 392.958C549.137 392.034 548.877 391.304 548.357 390.77C547.852 390.236 547.231 389.969 546.495 389.969C545.759 389.969 545.13 390.236 544.611 390.77C544.105 391.29 543.853 392.012 543.853 392.936C543.853 393.86 544.105 394.596 544.611 395.145C545.13 395.679 545.759 395.946 546.495 395.946C547.231 395.946 547.852 395.679 548.357 395.145C548.877 394.611 549.137 393.882 549.137 392.958ZM566.911 392.763C566.911 393.109 566.89 393.47 566.846 393.846H558.465C558.523 394.596 558.761 395.174 559.18 395.578C559.613 395.968 560.14 396.163 560.761 396.163C561.685 396.163 562.327 395.773 562.688 394.993H566.63C566.428 395.787 566.06 396.502 565.525 397.137C565.006 397.773 564.349 398.271 563.555 398.632C562.76 398.993 561.873 399.173 560.891 399.173C559.707 399.173 558.653 398.921 557.729 398.415C556.805 397.91 556.083 397.188 555.563 396.25C555.043 395.311 554.783 394.214 554.783 392.958C554.783 391.701 555.036 390.604 555.541 389.666C556.061 388.727 556.783 388.005 557.707 387.5C558.631 386.995 559.692 386.742 560.891 386.742C562.06 386.742 563.1 386.987 564.009 387.478C564.919 387.969 565.626 388.669 566.132 389.579C566.652 390.489 566.911 391.55 566.911 392.763ZM563.121 391.788C563.121 391.153 562.905 390.647 562.472 390.272C562.039 389.897 561.497 389.709 560.847 389.709C560.227 389.709 559.7 389.889 559.266 390.25C558.848 390.611 558.588 391.124 558.487 391.788H563.121ZM573.781 399.173C572.727 399.173 571.789 398.993 570.966 398.632C570.143 398.271 569.493 397.78 569.017 397.159C568.54 396.524 568.273 395.816 568.215 395.037H571.876C571.919 395.455 572.114 395.795 572.46 396.055C572.807 396.314 573.233 396.444 573.738 396.444C574.2 396.444 574.554 396.358 574.799 396.185C575.059 395.997 575.189 395.759 575.189 395.47C575.189 395.123 575.009 394.871 574.648 394.712C574.287 394.539 573.702 394.351 572.893 394.149C572.027 393.947 571.305 393.737 570.728 393.521C570.15 393.29 569.652 392.936 569.233 392.459C568.815 391.969 568.605 391.312 568.605 390.489C568.605 389.796 568.793 389.168 569.168 388.604C569.558 388.027 570.121 387.572 570.858 387.24C571.608 386.908 572.496 386.742 573.522 386.742C575.038 386.742 576.229 387.117 577.095 387.868C577.976 388.619 578.481 389.615 578.611 390.857H575.189C575.131 390.438 574.944 390.106 574.626 389.861C574.323 389.615 573.919 389.492 573.413 389.492C572.98 389.492 572.648 389.579 572.417 389.752C572.186 389.911 572.07 390.135 572.07 390.424C572.07 390.77 572.251 391.03 572.612 391.203C572.987 391.377 573.565 391.55 574.344 391.723C575.24 391.954 575.969 392.185 576.532 392.416C577.095 392.633 577.586 392.994 578.005 393.499C578.438 393.99 578.662 394.654 578.676 395.492C578.676 396.199 578.474 396.834 578.07 397.397C577.68 397.946 577.109 398.379 576.359 398.697C575.622 399.014 574.763 399.173 573.781 399.173ZM582.804 385.659C582.154 385.659 581.62 385.471 581.202 385.096C580.797 384.706 580.595 384.23 580.595 383.667C580.595 383.089 580.797 382.613 581.202 382.237C581.62 381.847 582.154 381.652 582.804 381.652C583.439 381.652 583.959 381.847 584.364 382.237C584.782 382.613 584.992 383.089 584.992 383.667C584.992 384.23 584.782 384.706 584.364 385.096C583.959 385.471 583.439 385.659 582.804 385.659ZM584.645 386.915V399H580.942V386.915H584.645ZM591.92 386.742C592.772 386.742 593.516 386.915 594.151 387.262C594.801 387.608 595.299 388.063 595.645 388.626V386.915H599.349V398.978C599.349 400.09 599.125 401.094 598.677 401.989C598.244 402.898 597.573 403.62 596.663 404.154C595.768 404.689 594.649 404.956 593.306 404.956C591.516 404.956 590.065 404.53 588.953 403.678C587.841 402.841 587.206 401.7 587.047 400.256H590.707C590.823 400.718 591.097 401.079 591.53 401.339C591.964 401.613 592.498 401.75 593.133 401.75C593.898 401.75 594.505 401.527 594.952 401.079C595.414 400.646 595.645 399.946 595.645 398.978V397.267C595.284 397.831 594.786 398.293 594.151 398.653C593.516 399 592.772 399.173 591.92 399.173C590.924 399.173 590.022 398.921 589.213 398.415C588.405 397.895 587.762 397.166 587.286 396.228C586.824 395.275 586.593 394.178 586.593 392.936C586.593 391.694 586.824 390.604 587.286 389.666C587.762 388.727 588.405 388.005 589.213 387.5C590.022 386.995 590.924 386.742 591.92 386.742ZM595.645 392.958C595.645 392.034 595.385 391.304 594.866 390.77C594.36 390.236 593.739 389.969 593.003 389.969C592.267 389.969 591.639 390.236 591.119 390.77C590.614 391.29 590.361 392.012 590.361 392.936C590.361 393.86 590.614 394.596 591.119 395.145C591.639 395.679 592.267 395.946 593.003 395.946C593.739 395.946 594.36 395.679 594.866 395.145C595.385 394.611 595.645 393.882 595.645 392.958ZM609.391 386.785C610.806 386.785 611.933 387.247 612.77 388.171C613.622 389.081 614.048 390.337 614.048 391.94V399H610.366V392.438C610.366 391.629 610.157 391.001 609.738 390.554C609.319 390.106 608.756 389.882 608.049 389.882C607.341 389.882 606.778 390.106 606.359 390.554C605.941 391.001 605.731 391.629 605.731 392.438V399H602.028V386.915H605.731V388.518C606.107 387.984 606.612 387.565 607.247 387.262C607.883 386.944 608.597 386.785 609.391 386.785ZM628.013 392.763C628.013 393.109 627.991 393.47 627.948 393.846H619.567C619.624 394.596 619.863 395.174 620.281 395.578C620.714 395.968 621.241 396.163 621.862 396.163C622.786 396.163 623.429 395.773 623.79 394.993H627.731C627.529 395.787 627.161 396.502 626.627 397.137C626.107 397.773 625.45 398.271 624.656 398.632C623.862 398.993 622.974 399.173 621.992 399.173C620.808 399.173 619.754 398.921 618.83 398.415C617.906 397.91 617.184 397.188 616.665 396.25C616.145 395.311 615.885 394.214 615.885 392.958C615.885 391.701 616.138 390.604 616.643 389.666C617.163 388.727 617.885 388.005 618.809 387.5C619.733 386.995 620.794 386.742 621.992 386.742C623.162 386.742 624.201 386.987 625.111 387.478C626.02 387.969 626.728 388.669 627.233 389.579C627.753 390.489 628.013 391.55 628.013 392.763ZM624.223 391.788C624.223 391.153 624.006 390.647 623.573 390.272C623.14 389.897 622.599 389.709 621.949 389.709C621.328 389.709 620.801 389.889 620.368 390.25C619.949 390.611 619.689 391.124 619.588 391.788H624.223ZM629.23 392.936C629.23 391.694 629.461 390.604 629.923 389.666C630.4 388.727 631.042 388.005 631.851 387.5C632.659 386.995 633.562 386.742 634.558 386.742C635.352 386.742 636.074 386.908 636.724 387.24C637.388 387.572 637.908 388.02 638.283 388.583V382.974H641.986V399H638.283V397.267C637.937 397.845 637.438 398.307 636.789 398.653C636.153 399 635.41 399.173 634.558 399.173C633.562 399.173 632.659 398.921 631.851 398.415C631.042 397.895 630.4 397.166 629.923 396.228C629.461 395.275 629.23 394.178 629.23 392.936ZM638.283 392.958C638.283 392.034 638.023 391.304 637.503 390.77C636.998 390.236 636.377 389.969 635.641 389.969C634.905 389.969 634.276 390.236 633.757 390.77C633.251 391.29 632.999 392.012 632.999 392.936C632.999 393.86 633.251 394.596 633.757 395.145C634.276 395.679 634.905 395.946 635.641 395.946C636.377 395.946 636.998 395.679 637.503 395.145C638.023 394.611 638.283 393.882 638.283 392.958ZM655.319 389.991H653.327V399H649.623V389.991H648.281V386.915H649.623V386.569C649.623 385.082 650.049 383.955 650.901 383.19C651.753 382.411 653.002 382.021 654.648 382.021C654.922 382.021 655.124 382.028 655.254 382.042V385.183C654.547 385.139 654.049 385.24 653.76 385.486C653.471 385.731 653.327 386.172 653.327 386.807V386.915H655.319V389.991ZM662.56 399.173C661.376 399.173 660.308 398.921 659.355 398.415C658.417 397.91 657.673 397.188 657.124 396.25C656.59 395.311 656.323 394.214 656.323 392.958C656.323 391.716 656.597 390.626 657.146 389.687C657.695 388.734 658.445 388.005 659.398 387.5C660.351 386.995 661.42 386.742 662.604 386.742C663.788 386.742 664.856 386.995 665.809 387.5C666.762 388.005 667.513 388.734 668.061 389.687C668.61 390.626 668.884 391.716 668.884 392.958C668.884 394.199 668.603 395.297 668.04 396.25C667.491 397.188 666.733 397.91 665.766 398.415C664.813 398.921 663.744 399.173 662.56 399.173ZM662.56 395.968C663.268 395.968 663.867 395.708 664.358 395.188C664.863 394.669 665.116 393.925 665.116 392.958C665.116 391.99 664.87 391.247 664.38 390.727C663.903 390.207 663.311 389.947 662.604 389.947C661.882 389.947 661.283 390.207 660.806 390.727C660.33 391.232 660.091 391.976 660.091 392.958C660.091 393.925 660.322 394.669 660.784 395.188C661.261 395.708 661.853 395.968 662.56 395.968ZM674.553 388.929C674.986 388.265 675.527 387.745 676.177 387.37C676.827 386.98 677.548 386.785 678.343 386.785V390.705H677.325C676.401 390.705 675.708 390.907 675.246 391.312C674.784 391.701 674.553 392.395 674.553 393.391V399H670.849V386.915H674.553V388.929ZM697.047 386.915L689.467 404.739H685.482L688.254 398.589L683.338 386.915H687.474L690.268 394.474L693.04 386.915H697.047ZM703.887 399.173C702.703 399.173 701.635 398.921 700.682 398.415C699.743 397.91 699 397.188 698.451 396.25C697.917 395.311 697.65 394.214 697.65 392.958C697.65 391.716 697.924 390.626 698.473 389.687C699.021 388.734 699.772 388.005 700.725 387.5C701.678 386.995 702.746 386.742 703.93 386.742C705.114 386.742 706.183 386.995 707.136 387.5C708.088 388.005 708.839 388.734 709.388 389.687C709.937 390.626 710.211 391.716 710.211 392.958C710.211 394.199 709.929 395.297 709.366 396.25C708.818 397.188 708.06 397.91 707.092 398.415C706.139 398.921 705.071 399.173 703.887 399.173ZM703.887 395.968C704.594 395.968 705.194 395.708 705.684 395.188C706.19 394.669 706.442 393.925 706.442 392.958C706.442 391.99 706.197 391.247 705.706 390.727C705.23 390.207 704.638 389.947 703.93 389.947C703.208 389.947 702.609 390.207 702.133 390.727C701.656 391.232 701.418 391.976 701.418 392.958C701.418 393.925 701.649 394.669 702.111 395.188C702.587 395.708 703.179 395.968 703.887 395.968ZM724.109 386.915V399H720.405V397.354C720.03 397.888 719.517 398.321 718.868 398.653C718.232 398.971 717.525 399.13 716.745 399.13C715.821 399.13 715.006 398.928 714.298 398.524C713.591 398.105 713.042 397.506 712.652 396.726C712.262 395.946 712.067 395.029 712.067 393.976V386.915H715.749V393.477C715.749 394.286 715.958 394.914 716.377 395.362C716.796 395.809 717.359 396.033 718.066 396.033C718.788 396.033 719.359 395.809 719.777 395.362C720.196 394.914 720.405 394.286 720.405 393.477V386.915H724.109ZM730.472 388.929C730.905 388.265 731.447 387.745 732.097 387.37C732.746 386.98 733.468 386.785 734.262 386.785V390.705H733.244C732.32 390.705 731.627 390.907 731.165 391.312C730.703 391.701 730.472 392.395 730.472 393.391V399H726.769V386.915H730.472V388.929ZM173.38 432.958C173.38 431.701 173.633 430.604 174.138 429.666C174.658 428.727 175.372 428.005 176.282 427.5C177.206 426.995 178.26 426.742 179.444 426.742C180.96 426.742 182.223 427.139 183.234 427.933C184.259 428.727 184.931 429.846 185.248 431.29H181.307C180.974 430.366 180.332 429.904 179.379 429.904C178.7 429.904 178.159 430.171 177.755 430.705C177.35 431.225 177.148 431.976 177.148 432.958C177.148 433.939 177.35 434.697 177.755 435.232C178.159 435.751 178.7 436.011 179.379 436.011C180.332 436.011 180.974 435.549 181.307 434.625H185.248C184.931 436.04 184.259 437.152 183.234 437.96C182.209 438.769 180.946 439.173 179.444 439.173C178.26 439.173 177.206 438.921 176.282 438.415C175.372 437.91 174.658 437.188 174.138 436.25C173.633 435.311 173.38 434.214 173.38 432.958ZM192.73 439.173C191.546 439.173 190.478 438.921 189.525 438.415C188.586 437.91 187.843 437.188 187.294 436.25C186.76 435.311 186.493 434.214 186.493 432.958C186.493 431.716 186.767 430.626 187.316 429.687C187.864 428.734 188.615 428.005 189.568 427.5C190.521 426.995 191.589 426.742 192.773 426.742C193.957 426.742 195.026 426.995 195.979 427.5C196.932 428.005 197.682 428.734 198.231 429.687C198.78 430.626 199.054 431.716 199.054 432.958C199.054 434.199 198.772 435.297 198.209 436.25C197.661 437.188 196.903 437.91 195.935 438.415C194.982 438.921 193.914 439.173 192.73 439.173ZM192.73 435.968C193.438 435.968 194.037 435.708 194.528 435.188C195.033 434.669 195.286 433.925 195.286 432.958C195.286 431.99 195.04 431.247 194.549 430.727C194.073 430.207 193.481 429.947 192.773 429.947C192.051 429.947 191.452 430.207 190.976 430.727C190.499 431.232 190.261 431.976 190.261 432.958C190.261 433.925 190.492 434.669 190.954 435.188C191.431 435.708 192.023 435.968 192.73 435.968ZM216.439 426.785C217.94 426.785 219.131 427.24 220.012 428.15C220.907 429.059 221.355 430.323 221.355 431.94V439H217.673V432.438C217.673 431.658 217.464 431.059 217.045 430.64C216.641 430.207 216.078 429.991 215.356 429.991C214.634 429.991 214.064 430.207 213.645 430.64C213.241 431.059 213.039 431.658 213.039 432.438V439H209.357V432.438C209.357 431.658 209.147 431.059 208.729 430.64C208.324 430.207 207.761 429.991 207.039 429.991C206.318 429.991 205.747 430.207 205.329 430.64C204.924 431.059 204.722 431.658 204.722 432.438V439H201.019V426.915H204.722V428.431C205.098 427.926 205.588 427.529 206.195 427.24C206.801 426.937 207.487 426.785 208.252 426.785C209.162 426.785 209.97 426.98 210.678 427.37C211.4 427.76 211.963 428.316 212.367 429.038C212.786 428.373 213.356 427.832 214.078 427.413C214.8 426.995 215.587 426.785 216.439 426.785ZM230.009 429.991H228.017V439H224.313V429.991H222.97V426.915H224.313V426.569C224.313 425.082 224.739 423.955 225.591 423.19C226.443 422.411 227.692 422.021 229.338 422.021C229.612 422.021 229.814 422.028 229.944 422.042V425.183C229.237 425.139 228.739 425.24 228.45 425.486C228.161 425.731 228.017 426.172 228.017 426.807V426.915H230.009V429.991ZM237.25 439.173C236.066 439.173 234.998 438.921 234.045 438.415C233.106 437.91 232.363 437.188 231.814 436.25C231.28 435.311 231.013 434.214 231.013 432.958C231.013 431.716 231.287 430.626 231.836 429.687C232.385 428.734 233.135 428.005 234.088 427.5C235.041 426.995 236.11 426.742 237.294 426.742C238.477 426.742 239.546 426.995 240.499 427.5C241.452 428.005 242.203 428.734 242.751 429.687C243.3 430.626 243.574 431.716 243.574 432.958C243.574 434.199 243.293 435.297 242.73 436.25C242.181 437.188 241.423 437.91 240.456 438.415C239.503 438.921 238.434 439.173 237.25 439.173ZM237.25 435.968C237.958 435.968 238.557 435.708 239.048 435.188C239.553 434.669 239.806 433.925 239.806 432.958C239.806 431.99 239.56 431.247 239.069 430.727C238.593 430.207 238.001 429.947 237.294 429.947C236.572 429.947 235.972 430.207 235.496 430.727C235.02 431.232 234.781 431.976 234.781 432.958C234.781 433.925 235.012 434.669 235.474 435.188C235.951 435.708 236.543 435.968 237.25 435.968ZM249.242 428.929C249.675 428.265 250.217 427.745 250.867 427.37C251.516 426.98 252.238 426.785 253.032 426.785V430.705H252.014C251.09 430.705 250.397 430.907 249.935 431.312C249.473 431.701 249.242 432.395 249.242 433.391V439H245.539V426.915H249.242V428.929ZM261.538 435.86V439H259.654C258.311 439 257.264 438.675 256.513 438.025C255.763 437.361 255.387 436.286 255.387 434.798V429.991H253.915V426.915H255.387V423.97H259.091V426.915H261.516V429.991H259.091V434.842C259.091 435.203 259.177 435.463 259.351 435.621C259.524 435.78 259.813 435.86 260.217 435.86H261.538ZM267.586 435.578L265.182 441.794H262.821L264.077 435.578H267.586ZM273.672 432.958C273.672 431.701 273.925 430.604 274.43 429.666C274.95 428.727 275.664 428.005 276.574 427.5C277.498 426.995 278.552 426.742 279.736 426.742C281.252 426.742 282.515 427.139 283.526 427.933C284.551 428.727 285.222 429.846 285.54 431.29H281.599C281.266 430.366 280.624 429.904 279.671 429.904C278.992 429.904 278.451 430.171 278.047 430.705C277.642 431.225 277.44 431.976 277.44 432.958C277.44 433.939 277.642 434.697 278.047 435.232C278.451 435.751 278.992 436.011 279.671 436.011C280.624 436.011 281.266 435.549 281.599 434.625H285.54C285.222 436.04 284.551 437.152 283.526 437.96C282.501 438.769 281.238 439.173 279.736 439.173C278.552 439.173 277.498 438.921 276.574 438.415C275.664 437.91 274.95 437.188 274.43 436.25C273.925 435.311 273.672 434.214 273.672 432.958ZM293.022 439.173C291.838 439.173 290.77 438.921 289.817 438.415C288.878 437.91 288.135 437.188 287.586 436.25C287.052 435.311 286.785 434.214 286.785 432.958C286.785 431.716 287.059 430.626 287.608 429.687C288.156 428.734 288.907 428.005 289.86 427.5C290.813 426.995 291.881 426.742 293.065 426.742C294.249 426.742 295.318 426.995 296.271 427.5C297.224 428.005 297.974 428.734 298.523 429.687C299.072 430.626 299.346 431.716 299.346 432.958C299.346 434.199 299.064 435.297 298.501 436.25C297.953 437.188 297.195 437.91 296.227 438.415C295.274 438.921 294.206 439.173 293.022 439.173ZM293.022 435.968C293.73 435.968 294.329 435.708 294.82 435.188C295.325 434.669 295.578 433.925 295.578 432.958C295.578 431.99 295.332 431.247 294.841 430.727C294.365 430.207 293.773 429.947 293.065 429.947C292.343 429.947 291.744 430.207 291.268 430.727C290.791 431.232 290.553 431.976 290.553 432.958C290.553 433.925 290.784 434.669 291.246 435.188C291.723 435.708 292.315 435.968 293.022 435.968ZM308.674 426.785C310.089 426.785 311.215 427.247 312.053 428.171C312.905 429.081 313.331 430.337 313.331 431.94V439H309.649V432.438C309.649 431.629 309.439 431.001 309.021 430.554C308.602 430.106 308.039 429.882 307.331 429.882C306.624 429.882 306.061 430.106 305.642 430.554C305.223 431.001 305.014 431.629 305.014 432.438V439H301.311V426.915H305.014V428.518C305.39 427.984 305.895 427.565 306.53 427.262C307.165 426.944 307.88 426.785 308.674 426.785ZM321.34 435.535L323.961 426.915H327.902L323.614 439H319.044L314.756 426.915H318.719L321.34 435.535ZM340.853 432.763C340.853 433.109 340.831 433.47 340.788 433.846H332.406C332.464 434.596 332.702 435.174 333.121 435.578C333.554 435.968 334.081 436.163 334.702 436.163C335.626 436.163 336.269 435.773 336.63 434.993H340.571C340.369 435.787 340.001 436.502 339.467 437.137C338.947 437.773 338.29 438.271 337.496 438.632C336.702 438.993 335.814 439.173 334.832 439.173C333.648 439.173 332.594 438.921 331.67 438.415C330.746 437.91 330.024 437.188 329.504 436.25C328.985 435.311 328.725 434.214 328.725 432.958C328.725 431.701 328.977 430.604 329.483 429.666C330.002 428.727 330.724 428.005 331.648 427.5C332.572 426.995 333.634 426.742 334.832 426.742C336.001 426.742 337.041 426.987 337.951 427.478C338.86 427.969 339.568 428.669 340.073 429.579C340.593 430.489 340.853 431.55 340.853 432.763ZM337.063 431.788C337.063 431.153 336.846 430.647 336.413 430.272C335.98 429.897 335.438 429.709 334.789 429.709C334.168 429.709 333.641 429.889 333.208 430.25C332.789 430.611 332.529 431.124 332.428 431.788H337.063ZM350.17 426.785C351.585 426.785 352.711 427.247 353.548 428.171C354.4 429.081 354.826 430.337 354.826 431.94V439H351.145V432.438C351.145 431.629 350.935 431.001 350.516 430.554C350.098 430.106 349.535 429.882 348.827 429.882C348.12 429.882 347.557 430.106 347.138 430.554C346.719 431.001 346.51 431.629 346.51 432.438V439H342.806V426.915H346.51V428.518C346.885 427.984 347.391 427.565 348.026 427.262C348.661 426.944 349.376 426.785 350.17 426.785ZM359.262 425.659C358.613 425.659 358.078 425.471 357.66 425.096C357.255 424.706 357.053 424.23 357.053 423.667C357.053 423.089 357.255 422.613 357.66 422.237C358.078 421.847 358.613 421.652 359.262 421.652C359.898 421.652 360.417 421.847 360.822 422.237C361.24 422.613 361.45 423.089 361.45 423.667C361.45 424.23 361.24 424.706 360.822 425.096C360.417 425.471 359.898 425.659 359.262 425.659ZM361.103 426.915V439H357.4V426.915H361.103ZM375.179 432.763C375.179 433.109 375.157 433.47 375.114 433.846H366.732C366.79 434.596 367.028 435.174 367.447 435.578C367.88 435.968 368.407 436.163 369.028 436.163C369.952 436.163 370.595 435.773 370.956 434.993H374.897C374.695 435.787 374.327 436.502 373.793 437.137C373.273 437.773 372.616 438.271 371.822 438.632C371.028 438.993 370.14 439.173 369.158 439.173C367.974 439.173 366.92 438.921 365.996 438.415C365.072 437.91 364.35 437.188 363.83 436.25C363.311 435.311 363.051 434.214 363.051 432.958C363.051 431.701 363.303 430.604 363.809 429.666C364.328 428.727 365.05 428.005 365.974 427.5C366.898 426.995 367.96 426.742 369.158 426.742C370.327 426.742 371.367 426.987 372.277 427.478C373.186 427.969 373.894 428.669 374.399 429.579C374.919 430.489 375.179 431.55 375.179 432.763ZM371.389 431.788C371.389 431.153 371.172 430.647 370.739 430.272C370.306 429.897 369.764 429.709 369.115 429.709C368.494 429.709 367.967 429.889 367.534 430.25C367.115 430.611 366.855 431.124 366.754 431.788H371.389ZM384.496 426.785C385.911 426.785 387.037 427.247 387.874 428.171C388.726 429.081 389.152 430.337 389.152 431.94V439H385.47V432.438C385.47 431.629 385.261 431.001 384.842 430.554C384.424 430.106 383.861 429.882 383.153 429.882C382.446 429.882 381.883 430.106 381.464 430.554C381.045 431.001 380.836 431.629 380.836 432.438V439H377.132V426.915H380.836V428.518C381.211 427.984 381.717 427.565 382.352 427.262C382.987 426.944 383.702 426.785 384.496 426.785ZM390.989 432.958C390.989 431.701 391.242 430.604 391.747 429.666C392.267 428.727 392.982 428.005 393.891 427.5C394.816 426.995 395.87 426.742 397.053 426.742C398.569 426.742 399.833 427.139 400.843 427.933C401.869 428.727 402.54 429.846 402.858 431.29H398.916C398.584 430.366 397.941 429.904 396.988 429.904C396.31 429.904 395.768 430.171 395.364 430.705C394.96 431.225 394.758 431.976 394.758 432.958C394.758 433.939 394.96 434.697 395.364 435.232C395.768 435.751 396.31 436.011 396.988 436.011C397.941 436.011 398.584 435.549 398.916 434.625H402.858C402.54 436.04 401.869 437.152 400.843 437.96C399.818 438.769 398.555 439.173 397.053 439.173C395.87 439.173 394.816 438.921 393.891 438.415C392.982 437.91 392.267 437.188 391.747 436.25C391.242 435.311 390.989 434.214 390.989 432.958ZM416.23 432.763C416.23 433.109 416.209 433.47 416.165 433.846H407.784C407.842 434.596 408.08 435.174 408.499 435.578C408.932 435.968 409.459 436.163 410.08 436.163C411.004 436.163 411.646 435.773 412.007 434.993H415.949C415.747 435.787 415.378 436.502 414.844 437.137C414.324 437.773 413.668 438.271 412.873 438.632C412.079 438.993 411.191 439.173 410.21 439.173C409.026 439.173 407.972 438.921 407.048 438.415C406.124 437.91 405.402 437.188 404.882 436.25C404.362 435.311 404.102 434.214 404.102 432.958C404.102 431.701 404.355 430.604 404.86 429.666C405.38 428.727 406.102 428.005 407.026 427.5C407.95 426.995 409.011 426.742 410.21 426.742C411.379 426.742 412.419 426.987 413.328 427.478C414.238 427.969 414.945 428.669 415.451 429.579C415.97 430.489 416.23 431.55 416.23 432.763ZM412.44 431.788C412.44 431.153 412.224 430.647 411.791 430.272C411.357 429.897 410.816 429.709 410.166 429.709C409.545 429.709 409.018 429.889 408.585 430.25C408.167 430.611 407.907 431.124 407.806 431.788H412.44ZM422.169 435.578L419.765 441.794H417.404L418.66 435.578H422.169ZM428.255 432.936C428.255 431.694 428.486 430.604 428.948 429.666C429.425 428.727 430.067 428.005 430.876 427.5C431.684 426.995 432.587 426.742 433.583 426.742C434.435 426.742 435.178 426.915 435.814 427.262C436.463 427.608 436.961 428.063 437.308 428.626V426.915H441.011V439H437.308V437.289C436.947 437.852 436.442 438.307 435.792 438.653C435.157 439 434.413 439.173 433.561 439.173C432.579 439.173 431.684 438.921 430.876 438.415C430.067 437.895 429.425 437.166 428.948 436.228C428.486 435.275 428.255 434.178 428.255 432.936ZM437.308 432.958C437.308 432.034 437.048 431.304 436.528 430.77C436.023 430.236 435.402 429.969 434.666 429.969C433.929 429.969 433.301 430.236 432.782 430.77C432.276 431.29 432.024 432.012 432.024 432.936C432.024 433.86 432.276 434.596 432.782 435.145C433.301 435.679 433.929 435.946 434.666 435.946C435.402 435.946 436.023 435.679 436.528 435.145C437.048 434.611 437.308 433.882 437.308 432.958ZM451.054 426.785C452.469 426.785 453.595 427.247 454.433 428.171C455.284 429.081 455.71 430.337 455.71 431.94V439H452.029V432.438C452.029 431.629 451.819 431.001 451.401 430.554C450.982 430.106 450.419 429.882 449.711 429.882C449.004 429.882 448.441 430.106 448.022 430.554C447.603 431.001 447.394 431.629 447.394 432.438V439H443.691V426.915H447.394V428.518C447.769 427.984 448.275 427.565 448.91 427.262C449.545 426.944 450.26 426.785 451.054 426.785ZM457.548 432.936C457.548 431.694 457.779 430.604 458.241 429.666C458.717 428.727 459.36 428.005 460.168 427.5C460.977 426.995 461.879 426.742 462.875 426.742C463.669 426.742 464.391 426.908 465.041 427.24C465.705 427.572 466.225 428.02 466.6 428.583V422.974H470.304V439H466.6V437.267C466.254 437.845 465.756 438.307 465.106 438.653C464.471 439 463.727 439.173 462.875 439.173C461.879 439.173 460.977 438.921 460.168 438.415C459.36 437.895 458.717 437.166 458.241 436.228C457.779 435.275 457.548 434.178 457.548 432.936ZM466.6 432.958C466.6 432.034 466.34 431.304 465.821 430.77C465.315 430.236 464.694 429.969 463.958 429.969C463.222 429.969 462.594 430.236 462.074 430.77C461.569 431.29 461.316 432.012 461.316 432.936C461.316 433.86 461.569 434.596 462.074 435.145C462.594 435.679 463.222 435.946 463.958 435.946C464.694 435.946 465.315 435.679 465.821 435.145C466.34 434.611 466.6 433.882 466.6 432.958ZM482.489 439.173C481.435 439.173 480.496 438.993 479.673 438.632C478.85 438.271 478.2 437.78 477.724 437.159C477.248 436.524 476.98 435.816 476.923 435.037H480.583C480.626 435.455 480.821 435.795 481.168 436.055C481.514 436.314 481.94 436.444 482.445 436.444C482.907 436.444 483.261 436.358 483.507 436.185C483.766 435.997 483.896 435.759 483.896 435.47C483.896 435.123 483.716 434.871 483.355 434.712C482.994 434.539 482.409 434.351 481.601 434.149C480.734 433.947 480.012 433.737 479.435 433.521C478.857 433.29 478.359 432.936 477.941 432.459C477.522 431.969 477.313 431.312 477.313 430.489C477.313 429.796 477.5 429.168 477.876 428.604C478.265 428.027 478.829 427.572 479.565 427.24C480.316 426.908 481.204 426.742 482.229 426.742C483.745 426.742 484.936 427.117 485.802 427.868C486.683 428.619 487.188 429.615 487.318 430.857H483.896C483.839 430.438 483.651 430.106 483.333 429.861C483.03 429.615 482.626 429.492 482.12 429.492C481.687 429.492 481.355 429.579 481.124 429.752C480.893 429.911 480.778 430.135 480.778 430.424C480.778 430.77 480.958 431.03 481.319 431.203C481.695 431.377 482.272 431.55 483.052 431.723C483.947 431.954 484.676 432.185 485.239 432.416C485.802 432.633 486.293 432.994 486.712 433.499C487.145 433.99 487.369 434.654 487.383 435.492C487.383 436.199 487.181 436.834 486.777 437.397C486.387 437.946 485.817 438.379 485.066 438.697C484.33 439.014 483.47 439.173 482.489 439.173ZM493.352 428.626C493.713 428.063 494.211 427.608 494.847 427.262C495.482 426.915 496.226 426.742 497.077 426.742C498.074 426.742 498.976 426.995 499.785 427.5C500.593 428.005 501.228 428.727 501.69 429.666C502.167 430.604 502.405 431.694 502.405 432.936C502.405 434.178 502.167 435.275 501.69 436.228C501.228 437.166 500.593 437.895 499.785 438.415C498.976 438.921 498.074 439.173 497.077 439.173C496.24 439.173 495.496 439 494.847 438.653C494.211 438.307 493.713 437.859 493.352 437.311V444.761H489.649V426.915H493.352V428.626ZM498.637 432.936C498.637 432.012 498.377 431.29 497.857 430.77C497.352 430.236 496.724 429.969 495.973 429.969C495.236 429.969 494.608 430.236 494.089 430.77C493.583 431.304 493.331 432.034 493.331 432.958C493.331 433.882 493.583 434.611 494.089 435.145C494.608 435.679 495.236 435.946 495.973 435.946C496.709 435.946 497.337 435.679 497.857 435.145C498.377 434.596 498.637 433.86 498.637 432.936ZM506.211 425.659C505.561 425.659 505.027 425.471 504.608 425.096C504.204 424.706 504.001 424.23 504.001 423.667C504.001 423.089 504.204 422.613 504.608 422.237C505.027 421.847 505.561 421.652 506.211 421.652C506.846 421.652 507.366 421.847 507.77 422.237C508.189 422.613 508.398 423.089 508.398 423.667C508.398 424.23 508.189 424.706 507.77 425.096C507.366 425.471 506.846 425.659 506.211 425.659ZM508.051 426.915V439H504.348V426.915H508.051ZM514.439 428.929C514.872 428.265 515.413 427.745 516.063 427.37C516.713 426.98 517.435 426.785 518.229 426.785V430.705H517.211C516.287 430.705 515.594 430.907 515.132 431.312C514.67 431.701 514.439 432.395 514.439 433.391V439H510.735V426.915H514.439V428.929ZM521.861 425.659C521.212 425.659 520.677 425.471 520.259 425.096C519.854 424.706 519.652 424.23 519.652 423.667C519.652 423.089 519.854 422.613 520.259 422.237C520.677 421.847 521.212 421.652 521.861 421.652C522.497 421.652 523.016 421.847 523.421 422.237C523.839 422.613 524.049 423.089 524.049 423.667C524.049 424.23 523.839 424.706 523.421 425.096C523.016 425.471 522.497 425.659 521.861 425.659ZM523.702 426.915V439H519.999V426.915H523.702ZM533.121 435.86V439H531.237C529.894 439 528.848 438.675 528.097 438.025C527.346 437.361 526.971 436.286 526.971 434.798V429.991H525.498V426.915H526.971V423.97H530.674V426.915H533.1V429.991H530.674V434.842C530.674 435.203 530.761 435.463 530.934 435.621C531.107 435.78 531.396 435.86 531.8 435.86H533.121ZM547.117 426.915V439H543.414V437.354C543.039 437.888 542.526 438.321 541.876 438.653C541.241 438.971 540.534 439.13 539.754 439.13C538.83 439.13 538.014 438.928 537.307 438.524C536.599 438.105 536.051 437.506 535.661 436.726C535.271 435.946 535.076 435.029 535.076 433.976V426.915H538.758V433.477C538.758 434.286 538.967 434.914 539.386 435.362C539.804 435.809 540.368 436.033 541.075 436.033C541.797 436.033 542.367 435.809 542.786 435.362C543.205 434.914 543.414 434.286 543.414 433.477V426.915H547.117ZM549.041 432.936C549.041 431.694 549.272 430.604 549.734 429.666C550.211 428.727 550.853 428.005 551.662 427.5C552.47 426.995 553.373 426.742 554.369 426.742C555.221 426.742 555.964 426.915 556.6 427.262C557.249 427.608 557.747 428.063 558.094 428.626V426.915H561.797V439H558.094V437.289C557.733 437.852 557.228 438.307 556.578 438.653C555.943 439 555.199 439.173 554.347 439.173C553.365 439.173 552.47 438.921 551.662 438.415C550.853 437.895 550.211 437.166 549.734 436.228C549.272 435.275 549.041 434.178 549.041 432.936ZM558.094 432.958C558.094 432.034 557.834 431.304 557.314 430.77C556.809 430.236 556.188 429.969 555.452 429.969C554.715 429.969 554.087 430.236 553.568 430.77C553.062 431.29 552.81 432.012 552.81 432.936C552.81 433.86 553.062 434.596 553.568 435.145C554.087 435.679 554.715 435.946 555.452 435.946C556.188 435.946 556.809 435.679 557.314 435.145C557.834 434.611 558.094 433.882 558.094 432.958ZM568.18 422.974V439H564.477V422.974H568.18ZM577.294 425.659C576.644 425.659 576.11 425.471 575.692 425.096C575.287 424.706 575.085 424.23 575.085 423.667C575.085 423.089 575.287 422.613 575.692 422.237C576.11 421.847 576.644 421.652 577.294 421.652C577.929 421.652 578.449 421.847 578.854 422.237C579.272 422.613 579.482 423.089 579.482 423.667C579.482 424.23 579.272 424.706 578.854 425.096C578.449 425.471 577.929 425.659 577.294 425.659ZM579.157 440.559C579.157 442.046 578.781 443.115 578.031 443.765C577.28 444.429 576.233 444.761 574.89 444.761H573.439V441.621H574.327C574.731 441.621 575.02 441.541 575.193 441.382C575.367 441.223 575.453 440.964 575.453 440.603V426.915H579.157V440.559ZM587.32 439.173C586.136 439.173 585.068 438.921 584.115 438.415C583.177 437.91 582.433 437.188 581.884 436.25C581.35 435.311 581.083 434.214 581.083 432.958C581.083 431.716 581.357 430.626 581.906 429.687C582.455 428.734 583.205 428.005 584.158 427.5C585.111 426.995 586.18 426.742 587.364 426.742C588.548 426.742 589.616 426.995 590.569 427.5C591.522 428.005 592.273 428.734 592.821 429.687C593.37 430.626 593.644 431.716 593.644 432.958C593.644 434.199 593.363 435.297 592.8 436.25C592.251 437.188 591.493 437.91 590.526 438.415C589.573 438.921 588.504 439.173 587.32 439.173ZM587.32 435.968C588.028 435.968 588.627 435.708 589.118 435.188C589.623 434.669 589.876 433.925 589.876 432.958C589.876 431.99 589.63 431.247 589.14 430.727C588.663 430.207 588.071 429.947 587.364 429.947C586.642 429.947 586.043 430.207 585.566 430.727C585.09 431.232 584.851 431.976 584.851 432.958C584.851 433.925 585.082 434.669 585.544 435.188C586.021 435.708 586.613 435.968 587.32 435.968ZM607.542 426.915V439H603.839V437.354C603.463 437.888 602.951 438.321 602.301 438.653C601.666 438.971 600.958 439.13 600.179 439.13C599.255 439.13 598.439 438.928 597.731 438.524C597.024 438.105 596.475 437.506 596.085 436.726C595.696 435.946 595.501 435.029 595.501 433.976V426.915H599.182V433.477C599.182 434.286 599.392 434.914 599.811 435.362C600.229 435.809 600.792 436.033 601.5 436.033C602.222 436.033 602.792 435.809 603.211 435.362C603.629 434.914 603.839 434.286 603.839 433.477V426.915H607.542ZM613.906 428.929C614.339 428.265 614.88 427.745 615.53 427.37C616.18 426.98 616.902 426.785 617.696 426.785V430.705H616.678C615.754 430.705 615.061 430.907 614.599 431.312C614.137 431.701 613.906 432.395 613.906 433.391V439H610.202V426.915H613.906V428.929ZM626.829 426.785C628.244 426.785 629.37 427.247 630.208 428.171C631.06 429.081 631.486 430.337 631.486 431.94V439H627.804V432.438C627.804 431.629 627.595 431.001 627.176 430.554C626.757 430.106 626.194 429.882 625.487 429.882C624.779 429.882 624.216 430.106 623.797 430.554C623.379 431.001 623.169 431.629 623.169 432.438V439H619.466V426.915H623.169V428.518C623.545 427.984 624.05 427.565 624.685 427.262C625.321 426.944 626.035 426.785 626.829 426.785ZM645.451 432.763C645.451 433.109 645.429 433.47 645.386 433.846H637.005C637.062 434.596 637.301 435.174 637.719 435.578C638.152 435.968 638.679 436.163 639.3 436.163C640.224 436.163 640.867 435.773 641.228 434.993H645.169C644.967 435.787 644.599 436.502 644.065 437.137C643.545 437.773 642.888 438.271 642.094 438.632C641.3 438.993 640.412 439.173 639.43 439.173C638.246 439.173 637.192 438.921 636.268 438.415C635.344 437.91 634.622 437.188 634.102 436.25C633.583 435.311 633.323 434.214 633.323 432.958C633.323 431.701 633.576 430.604 634.081 429.666C634.601 428.727 635.323 428.005 636.247 427.5C637.171 426.995 638.232 426.742 639.43 426.742C640.6 426.742 641.639 426.987 642.549 427.478C643.458 427.969 644.166 428.669 644.671 429.579C645.191 430.489 645.451 431.55 645.451 432.763ZM641.661 431.788C641.661 431.153 641.444 430.647 641.011 430.272C640.578 429.897 640.037 429.709 639.387 429.709C638.766 429.709 638.239 429.889 637.806 430.25C637.387 430.611 637.127 431.124 637.026 431.788H641.661ZM659.749 426.915L652.169 444.739H648.184L650.956 438.589L646.04 426.915H650.177L652.971 434.474L655.743 426.915H659.749ZM662.821 439.173C662.171 439.173 661.637 438.986 661.218 438.61C660.814 438.22 660.612 437.744 660.612 437.181C660.612 436.603 660.814 436.12 661.218 435.73C661.637 435.34 662.171 435.145 662.821 435.145C663.456 435.145 663.976 435.34 664.38 435.73C664.799 436.12 665.008 436.603 665.008 437.181C665.008 437.744 664.799 438.22 664.38 438.61C663.976 438.986 663.456 439.173 662.821 439.173Z" fill="white"/>
</g>
<g filter="url(#filter1_d_353_896)">
<path d="M396.704 61.7467H405.014V65H392.673V40.4232H396.704V61.7467ZM407.042 55.1693C407.042 53.2126 407.443 51.4798 408.244 49.971C409.069 48.4622 410.177 47.2953 411.568 46.4701C412.983 45.6214 414.539 45.1971 416.236 45.1971C417.768 45.1971 419.1 45.5036 420.232 46.1165C421.387 46.7059 422.307 47.4485 422.99 48.3443V45.5154H427.057V65H422.99V62.1003C422.307 63.0197 421.375 63.7859 420.197 64.3988C419.018 65.0118 417.674 65.3183 416.165 65.3183C414.492 65.3183 412.959 64.8939 411.568 64.0452C410.177 63.1729 409.069 61.9706 408.244 60.4383C407.443 58.8823 407.042 57.126 407.042 55.1693ZM422.99 55.24C422.99 53.8962 422.707 52.7293 422.142 51.7391C421.599 50.749 420.88 49.9946 419.984 49.4759C419.089 48.9573 418.122 48.698 417.085 48.698C416.047 48.698 415.081 48.9573 414.185 49.4759C413.289 49.971 412.558 50.7136 411.993 51.7038C411.45 52.6703 411.179 53.8255 411.179 55.1693C411.179 56.513 411.45 57.6918 411.993 58.7055C412.558 59.7192 413.289 60.4972 414.185 61.0394C415.104 61.5581 416.071 61.8174 417.085 61.8174C418.122 61.8174 419.089 61.5581 419.984 61.0394C420.88 60.5208 421.599 59.7664 422.142 58.7762C422.707 57.7625 422.99 56.5838 422.99 55.24ZM437.055 48.8041V59.5896C437.055 60.3204 437.22 60.8508 437.55 61.1809C437.904 61.4873 438.493 61.6406 439.318 61.6406H441.794V65H438.611C436.796 65 435.405 64.5757 434.438 63.727C433.472 62.8783 432.988 61.4991 432.988 59.5896V48.8041H430.69V45.5154H432.988V40.6707H437.055V45.5154H441.794V48.8041H437.055ZM463.367 54.7803C463.367 55.5111 463.32 56.1712 463.226 56.7606H448.338C448.456 58.3165 449.034 59.566 450.071 60.509C451.108 61.452 452.381 61.9235 453.89 61.9235C456.059 61.9235 457.591 61.0158 458.487 59.2006H462.837C462.247 60.9923 461.175 62.4657 459.619 63.6209C458.086 64.7525 456.177 65.3183 453.89 65.3183C452.028 65.3183 450.354 64.9057 448.869 64.0806C447.407 63.2319 446.252 62.0531 445.403 60.5443C444.578 59.012 444.165 57.2439 444.165 55.24C444.165 53.2361 444.566 51.4798 445.368 49.971C446.193 48.4386 447.336 47.2599 448.798 46.4348C450.283 45.6097 451.98 45.1971 453.89 45.1971C455.729 45.1971 457.367 45.5979 458.805 46.3994C460.243 47.201 461.363 48.3326 462.165 49.7942C462.966 51.2323 463.367 52.8943 463.367 54.7803ZM459.159 53.5072C459.135 52.022 458.605 50.8315 457.568 49.9356C456.53 49.0398 455.246 48.5919 453.713 48.5919C452.322 48.5919 451.132 49.0398 450.142 49.9356C449.151 50.8079 448.562 51.9985 448.374 53.5072H459.159ZM474.407 65.3183C472.874 65.3183 471.495 65.0471 470.269 64.5049C469.067 63.9391 468.112 63.1847 467.405 62.2417C466.698 61.2752 466.321 60.2025 466.273 59.0238H470.446C470.517 59.8489 470.906 60.5443 471.613 61.1101C472.344 61.6524 473.252 61.9235 474.336 61.9235C475.468 61.9235 476.34 61.7113 476.953 61.287C477.589 60.839 477.908 60.2732 477.908 59.5896C477.908 58.8587 477.554 58.3165 476.847 57.9629C476.163 57.6093 475.067 57.2203 473.558 56.7959C472.096 56.3952 470.906 56.0062 469.987 55.629C469.067 55.2518 468.266 54.6742 467.582 53.8962C466.922 53.1183 466.592 52.0928 466.592 50.8197C466.592 49.7824 466.898 48.8394 467.511 47.9907C468.124 47.1184 468.996 46.4348 470.128 45.9397C471.283 45.4446 472.603 45.1971 474.089 45.1971C476.305 45.1971 478.085 45.7629 479.428 46.8945C480.796 48.0025 481.526 49.5231 481.621 51.4562H477.589C477.519 50.584 477.165 49.8885 476.529 49.3699C475.892 48.8512 475.032 48.5919 473.947 48.5919C472.886 48.5919 472.073 48.7923 471.507 49.193C470.941 49.5938 470.658 50.1242 470.658 50.7843C470.658 51.303 470.847 51.7391 471.224 52.0928C471.601 52.4464 472.061 52.7293 472.603 52.9414C473.146 53.13 473.947 53.3776 475.008 53.6841C476.422 54.0613 477.578 54.4502 478.473 54.851C479.393 55.2282 480.183 55.794 480.843 56.5484C481.503 57.3028 481.845 58.3047 481.868 59.5542C481.868 60.6622 481.562 61.6524 480.949 62.5246C480.336 63.3969 479.464 64.0806 478.332 64.5757C477.224 65.0707 475.916 65.3183 474.407 65.3183ZM490.927 48.8041V59.5896C490.927 60.3204 491.092 60.8508 491.422 61.1809C491.776 61.4873 492.365 61.6406 493.191 61.6406H495.666V65H492.483C490.668 65 489.277 64.5757 488.311 63.727C487.344 62.8783 486.861 61.4991 486.861 59.5896V48.8041H484.562V45.5154H486.861V40.6707H490.927V45.5154H495.666V48.8041H490.927Z" fill="white"/>
</g>
<defs>
<filter id="filter0_d_353_896" x="104.274" y="380.642" width="641.105" height="75.2347" filterUnits="userSpaceOnUse" color-interpolation-filters="sRGB">
<feFlood flood-opacity="0" result="BackgroundImageFix"/>
<feColorMatrix in="SourceAlpha" type="matrix" values="0 0 0 0 0 0 0 0 0 0 0 0 0 0 0 0 0 0 127 0" result="hardAlpha"/>
<feOffset dx="5.05263" dy="5.05263"/>
<feGaussianBlur stdDeviation="3.03158"/>
<feComposite in2="hardAlpha" operator="out"/>
<feColorMatrix type="matrix" values="0 0 0 0 0 0 0 0 0 0 0 0 0 0 0 0 0 0 0.35 0"/>
<feBlend mode="normal" in2="BackgroundImageFix" result="effect1_dropShadow_353_896"/>
<feBlend mode="normal" in="SourceGraphic" in2="effect1_dropShadow_353_896" result="shape"/>
</filter>
<filter id="filter1_d_353_896" x="386.073" y="35.2899" width="119.126" height="41.0284" filterUnits="userSpaceOnUse" color-interpolation-filters="sRGB">
<feFlood flood-opacity="0" result="BackgroundImageFix"/>
<feColorMatrix in="SourceAlpha" type="matrix" values="0 0 0 0 0 0 0 0 0 0 0 0 0 0 0 0 0 0 127 0" result="hardAlpha"/>
<feOffset dx="1.46667" dy="2.93333"/>
<feGaussianBlur stdDeviation="4.03333"/>
<feComposite in2="hardAlpha" operator="out"/>
<feColorMatrix type="matrix" values="0 0 0 0 0 0 0 0 0 0 0 0 0 0 0 0 0 0 0.35 0"/>
<feBlend mode="normal" in2="BackgroundImageFix" result="effect1_dropShadow_353_896"/>
<feBlend mode="normal" in="SourceGraphic" in2="effect1_dropShadow_353_896" result="shape"/>
</filter>
</defs>
</svg>
