<svg width="55" height="55" viewBox="0 0 55 55" fill="none" xmlns="http://www.w3.org/2000/svg">
<g id="lucide:tickets-plane">
<g id="Group">
<path id="Vector" d="M24.0605 38.9583H26.8724C28.0123 38.9582 29.1112 38.5334 29.9547 37.7667L41.248 27.5M27.498 30.9375L36.0918 32.0833M10.3105 18.3333L34.5564 6.73751C34.8312 6.60596 35.1296 6.53054 35.4339 6.51567C35.7383 6.5008 36.0425 6.54678 36.3289 6.65091C36.6153 6.75505 36.878 6.91525 37.1017 7.12214C37.3254 7.32904 37.5056 7.57847 37.6318 7.85584L42.3939 18.3333M13.748 22.9167V18.3333M13.748 32.0833V34.375M13.748 43.5417V48.125" stroke="#7B7B7B" stroke-width="4.58333" stroke-linecap="round" stroke-linejoin="round"/>
<path id="Vector_2" d="M45.832 18.3333H9.16536C6.63406 18.3333 4.58203 20.3853 4.58203 22.9166V43.5416C4.58203 46.0729 6.63406 48.1249 9.16536 48.1249H45.832C48.3633 48.1249 50.4154 46.0729 50.4154 43.5416V22.9166C50.4154 20.3853 48.3633 18.3333 45.832 18.3333Z" stroke="#7B7B7B" stroke-width="4.58333" stroke-linecap="round" stroke-linejoin="round"/>
</g>
</g>
</svg>
