<svg width="55" height="55" viewBox="0 0 55 55" fill="none" xmlns="http://www.w3.org/2000/svg">
<g id="material-symbols:mosque" clip-path="url(#clip0_345_773)">
<path id="Vector" d="M15.9271 18.448C15.125 18.448 14.562 18.2853 14.2381 17.9599C13.9142 17.6345 13.7515 17.0715 13.75 16.2709C13.75 14.7431 14.1128 13.3299 14.8385 12.0313C15.5642 10.7327 16.5382 9.66328 17.7604 8.823L27.5 2.29175L37.2396 8.823C38.4618 9.66328 39.4358 10.7327 40.1615 12.0313C40.8872 13.3299 41.25 14.7431 41.25 16.2709C41.25 17.073 41.0873 17.6367 40.7619 17.9622C40.4365 18.2876 39.8735 18.4495 39.0729 18.448H15.9271ZM2.29167 48.1251V19.9949C1.60417 19.5747 1.05035 19.0308 0.630208 18.3632C0.210069 17.6956 0 16.9217 0 16.0417C0 15.1617 0.458333 14.0923 1.375 12.8334C2.29167 11.5745 3.36111 10.3523 4.58333 9.16675C5.80556 10.3508 6.875 11.573 7.79167 12.8334C8.70833 14.0938 9.16667 15.1633 9.16667 16.0417C9.16667 16.9202 8.9566 17.694 8.53646 18.3632C8.11632 19.0324 7.5625 19.5755 6.875 19.9926V29.7917H11.4583V25.2084C11.4583 24.2536 11.7639 23.3369 12.375 22.4584C12.9861 21.5799 13.8646 21.007 15.0104 20.7397H39.9896C41.1354 21.007 42.0139 21.5799 42.625 22.4584C43.2361 23.3369 43.5417 24.2536 43.5417 25.2084V29.7917H48.125V19.9949C47.4375 19.5747 46.8837 19.0308 46.4635 18.3632C46.0434 17.6956 45.8333 16.9217 45.8333 16.0417C45.8333 15.1617 46.2917 14.0923 47.2083 12.8334C48.125 11.5745 49.1944 10.3523 50.4167 9.16675C51.6389 10.3508 52.7083 11.573 53.625 12.8334C54.5417 14.0938 55 15.1633 55 16.0417C55 16.9202 54.7899 17.694 54.3698 18.3632C53.9497 19.0324 53.3958 19.5763 52.7083 19.9949V48.1251H32.0833V38.9584C32.0833 37.698 31.6349 36.6194 30.7381 35.7226C29.8413 34.8258 28.7619 34.3766 27.5 34.3751C26.2381 34.3736 25.1594 34.8227 24.2642 35.7226C23.3689 36.6224 22.9197 37.7011 22.9167 38.9584V48.1251H2.29167Z" fill="#7B7B7B"/>
</g>
<defs>
<clipPath id="clip0_345_773">
<rect width="55" height="55" fill="white"/>
</clipPath>
</defs>
</svg>
