<svg width="55" height="55" viewBox="0 0 55 55" fill="none" xmlns="http://www.w3.org/2000/svg">
<g id="guidance:passports">
<path id="Vector" d="M42.3965 12.6041H46.9798V53.8541H8.02148V8.02075C27.5007 5.72909 41.8236 1.14575 41.8236 1.14575H42.3965V12.6041ZM42.3965 12.6041H13.7507M37.8132 33.2291C37.8132 30.494 36.7267 27.871 34.7927 25.937C32.8587 24.0031 30.2357 22.9166 27.5007 22.9166M37.8132 33.2291C37.8132 34.5833 37.5464 35.9243 37.0282 37.1755C36.5099 38.4267 35.7503 39.5635 34.7927 40.5211C33.8351 41.4787 32.6982 42.2383 31.4471 42.7566C30.1959 43.2748 28.8549 43.5416 27.5007 43.5416M37.8132 33.2291C36.6673 34.3749 33.2298 35.5208 27.5007 35.5208C21.7715 35.5208 18.334 34.3749 17.1882 33.2291M27.5007 22.9166C24.7656 22.9166 22.1426 24.0031 20.2086 25.937C18.2746 27.871 17.1882 30.494 17.1882 33.2291M27.5007 22.9166C29.7144 22.9166 31.5111 27.5343 31.5111 33.2291C31.5111 38.9239 29.7144 43.5416 27.5007 43.5416M27.5007 22.9166C25.2869 22.9166 23.4902 27.5343 23.4902 33.2291C23.4902 38.9239 25.2869 43.5416 27.5007 43.5416M27.5007 43.5416C24.7656 43.5416 22.1426 42.4551 20.2086 40.5211C19.251 39.5635 18.4914 38.4267 17.9731 37.1755C17.4549 35.9243 17.1882 34.5833 17.1882 33.2291" stroke="white" stroke-width="2.29167"/>
</g>
</svg>
